<?xml version="1.0" encoding="utf-8"?>
<!-- Generator: Adobe Illustrator 25.4.1, SVG Export Plug-In . SVG Version: 6.00 Build 0)  -->
<svg version="1.1" id="Layer_1" xmlns="http://www.w3.org/2000/svg" xmlns:xlink="http://www.w3.org/1999/xlink" x="0px" y="0px"
	 viewBox="0 0 750 520" style="enable-background:new 0 0 750 520;" xml:space="preserve">
<style type="text/css">
	.st0{clip-path:url(#SVGID_00000001653487746210147030000012470891422525198765_);fill:#458F8D;}
	.st1{opacity:0.5;clip-path:url(#SVGID_00000149375689087318649740000013090581542395056828_);}
	.st2{opacity:0.2;fill:url(#SVGID_00000026875058760734695720000001233772683704366990_);enable-background:new    ;}
	.st3{opacity:0.2;}
	.st4{fill:#2E3237;}
	.st5{opacity:0.5;clip-path:url(#SVGID_00000155865444388842230690000011705244889816143523_);}
	.st6{fill:none;stroke:#DEA69C;stroke-width:8;stroke-linecap:round;stroke-linejoin:bevel;stroke-miterlimit:10;}
	.st7{fill:none;stroke:#E8D7A5;stroke-width:8;stroke-linecap:round;stroke-linejoin:bevel;stroke-miterlimit:10;}
	.st8{fill:none;stroke:#7CC251;stroke-width:8;stroke-linecap:round;stroke-linejoin:bevel;stroke-miterlimit:10;}
	.st9{fill:none;stroke:#458F8D;stroke-width:8;stroke-linecap:round;stroke-linejoin:bevel;stroke-miterlimit:10;}
	.st10{fill:none;stroke:#5A90BC;stroke-width:8;stroke-linecap:round;stroke-linejoin:bevel;stroke-miterlimit:10;}
	.st11{fill:none;stroke:#59616B;stroke-width:8;stroke-linecap:round;stroke-linejoin:bevel;stroke-miterlimit:10;}
	.st12{fill:none;stroke:#7788A4;stroke-width:8;stroke-linecap:round;stroke-linejoin:bevel;stroke-miterlimit:10;}
	.st13{fill:none;stroke:#D583B7;stroke-width:8;stroke-linecap:round;stroke-linejoin:bevel;stroke-miterlimit:10;}
	.st14{fill:none;stroke:#BB8D9A;stroke-width:8;stroke-linecap:round;stroke-linejoin:bevel;stroke-miterlimit:10;}
	.st15{opacity:0.2;clip-path:url(#SVGID_00000111167920895853157280000015263855591890523784_);}
	.st16{fill:#59616B;}
</style>
<g>
	<g>
		<defs>
			<rect id="SVGID_1_" x="-15" width="780" height="520"/>
		</defs>
		<clipPath id="SVGID_00000116948052719236816460000010351926117125695917_">
			<use xlink:href="#SVGID_1_"  style="overflow:visible;"/>
		</clipPath>
		
			<rect x="-73.1" style="clip-path:url(#SVGID_00000116948052719236816460000010351926117125695917_);fill:#458F8D;" width="838.3" height="520"/>
	</g>
	<g>
		<defs>
			<rect id="SVGID_00000147193261403462076200000007071863432173474734_" x="-15" width="780" height="520"/>
		</defs>
		<clipPath id="SVGID_00000064340252183421853780000009044264572034627773_">
			<use xlink:href="#SVGID_00000147193261403462076200000007071863432173474734_"  style="overflow:visible;"/>
		</clipPath>
		<g style="opacity:0.5;clip-path:url(#SVGID_00000064340252183421853780000009044264572034627773_);">
			
				<linearGradient id="SVGID_00000004530469421993544430000002030730675206541222_" gradientUnits="userSpaceOnUse" x1="375.1938" y1="248.5531" x2="902.3467" y2="248.5531" gradientTransform="matrix(1 0 0 -1 0 522)">
				<stop  offset="0" style="stop-color:#59616B"/>
				<stop  offset="0.1242" style="stop-color:#606872"/>
				<stop  offset="0.3044" style="stop-color:#747A83"/>
				<stop  offset="0.5187" style="stop-color:#93989F"/>
				<stop  offset="0.7593" style="stop-color:#BFC2C5"/>
				<stop  offset="1" style="stop-color:#F3F3F3"/>
			</linearGradient>
			<path style="opacity:0.2;fill:url(#SVGID_00000004530469421993544430000002030730675206541222_);enable-background:new    ;" d="
				M893.2,79.1c-1.9-1.7-4-2.9-6.3-3.8c1-10.4,1.4-35.3-15-52.5C858.2,8.4,836.6,2.8,807.5,6c-8.5,0.9-15.8,2.9-21.8,5.8
				c-10-40-27.6-66.8-52.6-79.7c-23.9-12.3-54-11.4-86.9,2.6C631-58.9,618-62.2,603-65.9c-7.6-1.9-15.4-3.9-23.8-4.6
				c-13-1.1-24.4,6-36.4,13.4c-12.6,7.8-25.6,15.9-41.6,15.3c-13.6-0.5-26.1,5.7-36.5,17.8c-9.3,2.5-20,6.2-21.5,22.4
				c-4.6,1.1-12.1,3.7-18.7,9.3c-0.1,0.1-0.3,0.2-0.4,0.4c-0.2,0.2-0.4,0.3-0.6,0.5c-0.1,0.1-0.2,0.2-0.3,0.3
				c-1.8,1.6-3.4,3.4-4.8,5.5l0,0c-5.1,6.8-7,13.6-5.8,20.4c0.7,3.8,2.3,7.1,4.4,10c2.8,5.4,6.6,8.8,9.6,10.9
				c-8.8,14.9-25.9,52.1-19.5,108c0,0.1,0,0.2,0,0.3c3.4,18.9,4.6,28.7-5.6,46.1c-6.1,10.3-11.4,20.2-15.3,27.4
				c-3.3,6-5.8,10.7-7.1,12.5c-5.1,7.6-6.6,18.4,4.2,26.1c7.9,5.6,14.2,5.8,17.6,5.9c0.3,0,0.6,0,0.9,0c0.4,0.2,0.9,0.4,1.4,0.6
				c3.6,1.5,5.9,2.7,6.8,3.4c2,6.9,1.2,12.2-2.4,15.5c-1.3,1.2-1.8,3-1.4,4.7l0.1,0.5c0.9,4.2,3.6,15.8,13.1,18.9
				c0.1,7,0.4,18.4,9.6,21.6c1.4,0.5,2.7,0.9,3.9,1.3c1.9,0.6,4.2,1.4,5.4,1.9c-0.8,11.7-0.7,38.1,15.4,49.2
				c18.4,12.7,42.2,10.7,77.2,2.8c1-0.2,2.1-0.4,3.2-0.6c6.7-1.2,15-2.7,21.1,1.6c49.9,63.3,18.9,129.5,4,161.4
				c-0.6,1.3-0.6,2.8-0.1,4.1c15.9,36.2,59.5,54.5,129.8,54.5c65.2,0,119.7-18.3,138.8-46.7c8.7-12.9,10.2-27.9,4.6-43.6
				c23.6-19.4,40-57.6,20.3-96.2c-16.7-32.8-23-60.1-24.7-68.8c0.1-0.2,0.3-0.3,0.4-0.5c4.7-6.1,10.5-13.8,14.7-25.8
				c13.3-37.8-10-71.3-11-72.7c-0.1-0.1-0.2-0.2-0.3-0.4c-0.2-5.6-1.6-11.3-4.8-17c-13.5-24.8-4.3-51.2,0.6-61.7
				c5.8,3.6,13.7,7.2,22.5,7.2c2.4,0,4.9-0.3,7.4-0.9c15.9-3.8,28.3-19.8,36.9-47.6C905.4,113,905,89.5,893.2,79.1z"/>
			<g class="st3">
				<path class="st4" d="M893.2,79.1c-1.9-1.7-4-2.9-6.3-3.8c1-10.4,1.4-35.3-15-52.5C858.2,8.4,836.6,2.8,807.5,6
					c-8.5,0.9-15.8,2.9-21.8,5.8c-10-40-27.6-66.8-52.6-79.7c-23.9-12.3-54-11.4-86.9,2.6C631-58.9,618-62.2,603-65.9
					c-7.6-1.9-15.4-3.9-23.8-4.6c-13-1.1-24.4,6-36.4,13.4c-12.6,7.8-25.6,15.9-41.6,15.3c-13.6-0.5-26.1,5.7-36.5,17.8
					c-9.3,2.5-20,6.2-21.5,22.4c-4.6,1.1-12.1,3.7-18.7,9.3c-0.1,0.1-0.3,0.2-0.4,0.3c-0.2,0.2-0.4,0.4-0.7,0.6
					c-0.1,0.1-0.2,0.2-0.3,0.3c-1.8,1.6-3.4,3.4-4.8,5.5l0,0c-5.1,6.8-7,13.6-5.8,20.4c0.7,3.8,2.3,7.1,4.4,10
					c2.8,5.4,6.6,8.8,9.6,10.9c-8.8,14.9-25.9,52.1-19.5,108c0,0.1,0,0.2,0,0.3c3.4,18.9,4.6,28.7-5.6,46.1
					c-6,10.3-11.4,20.2-15.3,27.4c-3.3,6-5.8,10.7-7.1,12.5c-5.1,7.6-6.6,18.4,4.2,26.1c7.9,5.6,14.2,5.8,17.6,5.9
					c0.3,0,0.6,0,0.9,0c0.4,0.2,0.9,0.4,1.4,0.6c3.6,1.5,5.9,2.7,6.8,3.4c2,6.9,1.2,12.2-2.4,15.5c-1.3,1.2-1.8,3-1.4,4.7l0.1,0.5
					c0.9,4.2,3.6,15.8,13.1,18.9c0.1,7,0.4,18.4,9.6,21.6c1.4,0.5,2.7,0.9,3.9,1.3c1.9,0.6,4.2,1.4,5.4,1.9
					c-0.8,11.7-0.7,38.1,15.4,49.2c18.4,12.7,42.2,10.7,77.2,2.8c1-0.2,2.1-0.4,3.2-0.6c6.7-1.2,15-2.7,21.1,1.6
					c49.9,63.3,18.9,129.5,4,161.4c-0.6,1.3-0.6,2.8-0.1,4.1c15.9,36.2,59.5,54.5,129.8,54.5c65.2,0,119.7-18.3,138.8-46.7
					c8.7-12.9,10.2-27.9,4.6-43.6c23.6-19.4,40-57.6,20.3-96.2c-16.7-32.8-23-60.1-24.7-68.8c0.1-0.2,0.3-0.3,0.4-0.5
					c4.7-6.1,10.5-13.8,14.7-25.8c13.3-37.8-10-71.3-11-72.7c-0.1-0.1-0.2-0.2-0.3-0.4c-0.2-5.6-1.6-11.3-4.8-17
					c-13.5-24.8-4.3-51.2,0.6-61.7c5.8,3.6,13.7,7.2,22.5,7.2c2.4,0,4.9-0.3,7.4-0.9c15.9-3.8,28.3-19.8,36.9-47.6
					C905.4,113,905,89.5,893.2,79.1z M808.5,15.8c25.9-2.8,44.8,1.8,56.2,13.7c13.3,14,13.3,34.6,12.4,44c-5.7,0-11.4,1.5-15.9,3.5
					c-8.2,3.7-24.9,18.1-39.2,31.4c-3.1-10.5-6.5-19.2-8.9-23.9c-0.1-0.2-0.2-0.4-0.4-0.6c-0.4-5.1-1-8.4-1.1-9.1
					c-0.2-1.3-3.9-22-21.5-33.4c-0.2-6.1-1-12.7-2.4-19.7C793.1,18.7,800,16.7,808.5,15.8z M776.6,324.1
					c-26.9,39.1-44.1,72.8-0.7,120.1c11.4,12.5,16.7,25.7,15.5,39.2c-2,24-23,45.1-40.2,58.5c-8.2,6.4-12.4,13.3-12.5,20.6
					c0,2.2,0.4,4.3,1,6.1c-3.2-0.9-6.5-2.5-8.5-5.5c-4-5.8-2.7-16,3.8-29.6c19.1-40.3,25.7-62.9,10.9-80.7
					c-0.9-9.1-4.8-19.5-11.6-30.9c-16.8-28.3-7.8-55,0.1-78.5c5.7-16.9,11.1-33.1,4.7-46.3c17.7-1.6,37.1-5.5,44.8-26.7
					c0.7-1.9,1.3-4,2-6.1C789.3,279.5,790.9,303.3,776.6,324.1z M722.1,448.6c-4.3-3.7-10.2-7.6-17-12.1
					c-24.7-16.3-55.4-36.5-43.4-67.4c11.7-30.2,11.3-52.1,9.7-63.6c6.5,2.6,11.8,3.7,16.3,3.7c7.3,0,12.6-2.6,17.7-5.2
					c4.7-2.4,9.6-4.8,16.7-5.5c1.9-0.2,3.8-0.4,5.8-0.5c7.6,9.4,3.8,22.5-2.9,42.3c-8.2,24.3-18.4,54.6,0.7,86.7
					c10.1,17,12.9,30.5,8.3,40.2c-1.1,2.4-2.7,4.4-4.4,6.1c0.7-2,1.2-4,1.3-6.2C731.4,460.2,728.4,454,722.1,448.6z M781.4,241.2
					c-2.3,9.8-4.4,19-6.8,25.7c-6.6,18.2-24.5,19.4-43.5,20.8c-3.3,0.2-6.7,0.5-10,0.8c-8.9,0.9-14.9,3.9-20.1,6.5
					c-8,4-13.3,6.7-27.4,0.6c-1.5-0.6-3.1-0.5-4.4,0.3c-10.9-15.2-12.7-31.7-5.4-49.2c5.7-13.7,15.1-23,15.6-23.5
					c3.4-2.6,6.9-5.5,10.5-8.5c16.5-13.8,37-31,70.3-40c37.4-10.1,49.1-40.1,52.1-64.6c6.4,21.4,11.7,50.2,6.2,62.8
					c-1.6,3.7-3.6,4.3-4.2,4.5C794.9,182.9,787.7,213.9,781.4,241.2z M615.5,263.8c-1.7-2.2-2.7-4.8-3-7.4
					c-0.5-4.7,1.4-9.7,5.5-14.5c5.2-6.2,6.6-13,6.2-19.4c4.5,4,8.8,7,12.8,9c-5.9,3.8-10.5,7.6-13.5,11.6
					C618,250.1,614.6,256.4,615.5,263.8z M625,209.5c-1.8-1.9-3.5-3.6-5.2-5.4c-1.3-1.3-2.5-2.6-3.8-3.9l0,0
					c-13.7-14.2-24.3-26.5-37.6-56.2c-16.6-37-28.1-47-61.9-53.5c-0.2,0-0.4-0.1-0.6-0.1c-67.4-4.7-83.6-55-84.3-57.1
					c-0.6-2.1-2.6-3.5-4.7-3.5c-0.5,0-1,0.1-1.4,0.2c-0.8,0.2-1.5,0.7-2,1.2c-0.2-4.3,0.8-8,3-11.3c1-1.3,2.2-2.7,3.6-4.1
					c0.2-0.2,0.4-0.4,0.6-0.5s0.3-0.3,0.5-0.4c5.1-4,11.4-6.1,14.9-7c9.3,10.5,49.3,53.6,96,69.4c20.2,6.8,33.5,17,45.2,25.9
					c17.9,13.7,33.4,25.5,64.2,19.3c22-4.4,39.7-3.8,58.5-3.2c10.9,0.4,22.2,0.7,34.3,0c24.4-1.4,47.4-21.1,58.9-32.5
					c0.5,7.4,0.6,17.9-1.6,28.9c-5.1,26.3-19.9,42.9-44,49.5c-35.3,9.6-56.8,27.5-74,41.9C660.4,226.5,649.8,235.4,625,209.5z
					 M782.1,48.2c13.1,6.8,17.9,20.7,19.3,26.1c-6.5,7.2-32.2,33.7-57.7,35.2c-11.6,0.7-22.7,0.3-33.4-0.1
					c-16.8-0.6-34.2-1.1-54.6,2.3c-8.6-4.5-88.1-46.4-147.9-98.2c1.8-1.1,3.5-2.3,5.1-3.6c20.9-17,57.6,3.4,81.9,17
					c4.2,2.3,8.1,4.5,11.6,6.4c5.2,2.7,10.3,7.1,15.7,11.7c20,17.1,44.9,38.5,104.2,9.8C749.8,43.4,768.6,41.1,782.1,48.2z
					 M500.9-31.9c19,0.7,34-8.6,47.2-16.8c11.1-6.9,20.6-12.8,30.4-12c7.6,0.6,15,2.5,22.2,4.3c15.3,3.9,31.2,7.8,49.4,0.1
					c21-8.9,51.7-16.7,78.5-2.9c23.5,12.1,40,38.9,49,79.6c0,0,0,0,0,0.1c1.3,5.7,2.1,11.1,2.5,16.1c-15.5-5-35-1.9-58,9.2
					c-53.5,25.9-74.7,7.7-93.4-8.4c-5.9-5-11.4-9.8-17.6-13c-3.4-1.8-7.3-3.9-11.4-6.2c-26.6-14.9-66.9-37.3-92.9-16
					c-2.1,1.7-4.4,3.2-6.7,4.3C490.6-2,481.8-10.7,474-19.6C482-28.1,491-32.2,500.9-31.9z M465.8-14c31.8,36.6,80,71,115.2,93.5
					c24.1,15.5,45.6,27.6,58.4,34.7c-19.7,1.2-31.1-7.4-46.1-18.8C581,86,567,75.3,545.3,68c-2.2-0.7-4.4-1.6-6.6-2.5
					c0.3,0.1,0.6,0.1,0.9,0.1c3.2,0,5.8-2.6,5.8-5.8s-2.6-5.8-5.8-5.8s-5.8,2.6-5.8,5.8c0,2,1,3.7,2.5,4.8
					C495,47.1,459.8,8.5,452.9,0.7C453.3-9.2,457.3-11.6,465.8-14z M688.8,613.6c-64.6,0-104.9-15.7-119.8-46.6
					c15-32.2,46.5-103.3-6.6-170.1c-0.2-0.3-0.5-0.6-0.8-0.8c-0.9-0.7-1.8-1.3-2.8-1.8c7.1-4.5,19-12.6,29.1-22
					c0.9-0.8-0.2-2.2-1.2-1.6c-13,8.2-31.3,16-41.5,20.1c-4.8-0.1-9.3,0.7-13,1.4c-1.1,0.2-2.2,0.4-3.1,0.5c-0.1,0-0.2,0-0.3,0.1
					c-37.8,8.5-56,8.1-69.6-1.3c-12.6-8.7-11.7-33.6-11.1-41.2c0.5-7-6.2-9.2-12.2-11.2c-1.1-0.4-2.4-0.8-3.7-1.2
					c-2.8-1-2.9-8.8-3-12.6c0-1.7-0.1-3.2-0.2-4.4c0-0.1-0.1-0.3-0.1-0.4c0.1-0.1,0.3-0.1,0.4-0.2c0.9-0.4,1.7-0.9,2.5-1.5
					c0.6-0.3,1.2-0.7,1.9-0.9c2.7-0.9,5.9-1.1,9.1-1.1c1.6,0,3.2,0.1,4.8,0.2c1.8,0.2,3.7,0.3,5.5,0.1c1.9-0.2,3.8-0.5,5.6-1.2
					c1.8-0.7,3.6-1.9,4.4-3.6c-1.8,0.7-3.4,0.8-5,0.7c-1.6-0.1-3.2-0.3-4.9-0.6c-1.6-0.3-3.2-0.6-4.9-1c-1.9-0.4-3.8-0.6-5.7-0.6
					c-3.8,0-7.8,0.7-11.3,3c-0.9,0.6-1.7,1.3-2.4,2.1c-0.5,0.7-1,1.3-1.5,1.9l0,0c-0.9-0.9-2-1.4-3.3-1.4c-4.5-0.1-6.6-5.1-7.9-10.1
					c3.6-4.6,6.3-12.2,2.8-23.9c-1.3-4.3-6.3-6.7-12.3-9.2c-0.6-0.2-1.1-0.4-1.4-0.6c-1.4-0.7-2.9-0.8-4.4-0.8
					c-2.7-0.1-6.8-0.2-12.2-4.1c-1.7-1.2-6.8-4.8-1.7-12.6c1.5-2.2,4-6.8,7.5-13.3c4.1-7.5,9.2-16.9,15.2-27.1
					c11.9-20.3,10.4-32.7,6.8-52.7c-0.1-0.5-0.1-1-0.2-1.5c2.3-3,4.8-5.6,7.5-7.9c4.6-3.7,9.6-6.6,15.2-8.3l4.2-1.1l4.3-0.8
					c2.6-0.4,5.6-0.2,8.5,0.1c3,0.4,5.9,0.9,8.9,1.7c3,0.7,5.9,1.6,8.7,3c-2.1-2.5-4.9-4.2-7.7-5.7c-2.9-1.4-5.9-2.6-9-3.5
					s-6.4-1.4-10-1.2l-4.9,0.6c-1.6,0.4-3.2,0.8-4.8,1.2c-6.4,1.9-12.2,5.7-16.6,10.6c-1.9,2-3.5,4.3-4.8,6.7
					c-4.2-50.2,11.3-83.1,19.1-96.1c1.6,2.1,3.4,4.2,5.3,6.4c12.6,13.9,35.7,31,74.3,33.8c28.5,5.5,38.5,12.2,54.5,47.8
					c13.8,30.9,25.3,44.3,39.1,58.6c3.5,5.7,10,19.2,1.9,28.7c-7.4,8.7-8.3,16.7-7.8,21.9c0.7,6.7,4.2,12.9,9.9,17.3
					c1.6,1.2,3.5,1.9,5.3,1.9c1.7,0,3.5-0.5,5-1.6c3.1-2.2,4.4-6.2,3.1-9.8c-1.4-4.1-1-7.7,5.3-16c3.4-4.5,10-9.2,19-13.8
					c0.5,0,1,0,1.5,0c2.4,0,4.8-0.3,7.2-0.9c-9.2,16.4-16.5,41.7,2.7,67.9c-0.3,0.8-0.4,1.7-0.3,2.6c1.7,9.8,2.8,30.6-8.8,60.5
					c-14.9,38.4,22.4,63,47.1,79.3c6.5,4.3,12.1,8,16,11.3s5.7,6.7,5.5,10.3c-0.4,7.1-8.5,14.1-11.5,16.2c-1.9,1.3-2.7,3.7-1.8,5.9
					c0.7,1.9,2.6,3.2,4.6,3.2c0.2,0,0.5,0,0.7,0c0.9-0.1,21.7-3.2,29.9-20.2c0.2-0.4,0.4-0.9,0.6-1.4c2.2,11.8-3.2,28.8-17.5,59.1
					c-8.2,17.2-9.2,30.5-3,39.5c6.8,9.8,19.7,10.8,24.7,10.8c1.1,0,1.9-0.1,2-0.1c2-0.2,3.7-1.5,4.3-3.5c0.6-1.9,0-4-1.6-5.3
					c0,0-3.9-3.4-3.9-8.1c0.1-5.1,4.7-9.8,8.7-12.9c7-5.5,14.6-12.1,21.5-19.8c3.8,28.7,25.4,42,36.2,47
					C794.5,599.1,745.3,613.6,688.8,613.6z M823.8,539c2.9,9.4,2.6,18.3-1,26.4c-3.2-5.5-7.6-14.1-9.7-23
					C816.3,542.2,819.9,541.1,823.8,539z M827,527.3c-0.3,0.2-0.6,0.5-0.9,0.7c-0.4,0.1-0.8,0.1-1.1,0.3c-1.1,0.5-2,1.3-2.5,2.3
					c-4.5,2.9-8.3,4.1-10.7,4.1c-0.1-1.4-0.1-2.9,0-4.3c0.3-4.9,5.6-13.1,11.1-21.8c11.4-17.8,27.5-42.8,21.2-70.8
					c0.5,1,0.9,1.9,1.4,2.9C865.9,480.7,842.3,514.9,827,527.3z M833.8,414.8c-13.4-20.5-15.3-29.5-12-37.2
					C823.9,386.2,827.6,399.2,833.8,414.8z M833.6,338.6c-3.7,10.6-8.8,17.2-13.2,23.1c-11.4,15.1-16.8,25.3,6,59.8
					c20.6,31.2,2.6,59.2-11.9,81.7c-6.8,10.6-12.3,19.1-12.7,26.6c-0.7,11.7,3.9,24.1,8.4,33.3c-10.5-7-23.1-20.7-22-45.1
					c7-10.2,12.1-21.5,13.1-33.8c0.4-4.6,0.2-9.1-0.6-13.6v-0.1c0,0,0-0.1-0.1-0.3c0-0.3-0.1-0.5-0.1-0.8
					c-0.7-4.1-2.7-19.7,2.3-37.9c3.5-12.7-1-27.1-5.7-42.4c-4.3-13.7-8.7-28-6.3-39.6c1.6-8.2,9.1-18.1,16.9-28.6
					c8.1-10.9,17.4-23.2,21.7-36.4C834.7,296.2,841.3,316.9,833.6,338.6z M799.7,315c-8.5,11.4-16.6,22.2-18.7,32.6
					c-2.8,14.1,1.9,29.6,6.6,44.5c4.3,13.9,8.4,27,5.6,36.9c-1.7,6.1-2.6,11.8-3.1,17.1c-2-2.9-4.3-5.7-6.9-8.5
					c-38.6-42.1-24.4-70,1.6-107.8c24-34.9,9.3-75.4,5.8-84.1c0.2-0.7,0.3-1.5,0.5-2.2c5.4-23.4,12.1-52.6,25.9-56.6
					c0.4-0.1,0.8-0.3,1.2-0.4c-5.7,12.5-15.5,41.6,0,70.1C828.9,275.9,814,295.8,799.7,315z M884.9,145.8
					c-7.4,23.8-17.7,38-29.8,40.9c-11.6,2.8-22.9-4.9-27.9-9.1c0.1-0.3,0.3-0.5,0.4-0.9c5.7-13.3,2.6-37-2.6-57.6
					c19.4-18.1,34.4-30.5,40.3-33.2c5.1-2.3,15.3-4.8,21.3,0.5C891.5,90.8,897.7,104.2,884.9,145.8z"/>
				<circle class="st4" cx="467.4" cy="1.2" r="5.8"/>
				<path class="st4" d="M488.1,27.1c3.2,0,5.8-2.6,5.8-5.8s-2.6-5.8-5.8-5.8c-3.2,0-5.8,2.6-5.8,5.8
					C482.2,24.5,484.8,27.1,488.1,27.1z"/>
				<circle class="st4" cx="512" cy="40.5" r="5.8"/>
				<path class="st4" d="M445.5,158.4c-0.8-0.2-1.7,0.1-2.1,0.8c-2.7,3.9-9.5,6.6-9.6,6.6c-0.8,0.3-1.3,1-1.3,1.9
					c0,0.8,0.5,1.6,1.3,1.8c0.8,0.3,3,1,5.9,2.1c-0.7,4.1-2.1,16,3.4,23.6c8.5,0,14.8-3,34-11c0.8,0.2,1.4,0.4,1.7,0.4
					c0.1,0,0.2,0,0.4,0c0.6,0,1.1-0.2,1.5-0.6c0.5-0.5,0.6-1.2,0.4-1.9C479.5,176.3,459,161.8,445.5,158.4z M445.8,162.6
					c10.2,3,22.2,11.2,28,16.5c-8.6-2.8-24.4-8.2-34.2-11.7C441.7,166.2,444.1,164.6,445.8,162.6z"/>
				<path class="st4" d="M412.4,267.9c-2.7-1.7-9.2-0.9-9.2-0.9c-4.5,1.1-2.6,2.7,0,2.8c2.6,0.1,9.3,2.5,11.8,2.2
					C417.3,271.6,415.1,269.5,412.4,267.9z"/>
				<path class="st4" d="M432.9,259.7c-0.4,2.5-0.5,4.6-0.8,6.6c-0.2,2-0.6,3.8-1.1,5.4s-1.3,2.9-2.4,4.3c-0.5,0.8-1.3,1.4-2,2.1
					c-0.8,0.8-1.7,1.3-2.6,2.3c2.4,0.6,5,0.6,7.4-0.7c2.4-1.2,4.5-3.5,5.2-6.2c0.9-2.6,0.8-5.3,0.1-7.7
					C436,263.5,434.9,261.3,432.9,259.7z"/>
			</g>
		</g>
	</g>
	<g>
		<defs>
			<rect id="SVGID_00000076598531404437045000000012173495706376554166_" x="-15" width="780" height="520"/>
		</defs>
		<clipPath id="SVGID_00000068655166251445840890000015097129082002665394_">
			<use xlink:href="#SVGID_00000076598531404437045000000012173495706376554166_"  style="overflow:visible;"/>
		</clipPath>
		<g style="opacity:0.5;clip-path:url(#SVGID_00000068655166251445840890000015097129082002665394_);">
			<path class="st6" d="M450.2,780.4c-38.4-141.2-100.7-199-150.6-225.6C179,490.3,79.7,580.4-48,497.3
				c-35.4-23.1-75.1-60.8-161-103.8c-31-15.5-57.5-26.5-75.5-33.4"/>
			<path class="st7" d="M461.7,766.6c-39-141.3-101.9-199.2-152.2-225.9C187.8,476,87.8,566-41,482.6
				c-35.7-23.1-75.8-61-162.4-104.1c-31.3-15.6-58-26.6-76.2-33.5"/>
			<path class="st8" d="M473.1,752.9c-39.5-141.4-103-199.4-153.7-226.3C196.6,461.7,96,551.6-34,468
				c-36.1-23.2-76.5-61.1-163.9-104.4c-31.5-15.6-58.5-26.6-76.9-33.7"/>
			<path class="st9" d="M484.6,739.1c-40-141.5-104.1-199.7-155.3-226.6c-123.9-65-225.2,24.7-356.3-59.1
				c-36.4-23.3-77.2-61.2-165.4-104.7c-31.8-15.7-59-26.7-77.5-33.8"/>
			<path class="st10" d="M496.1,725.4c-40.6-141.6-105.3-199.9-156.9-226.9c-125-65.3-226.9,24.3-359.2-59.8
				c-36.7-23.3-77.9-61.4-166.9-105c-32.1-15.7-59.5-26.8-78.2-33.9"/>
			<path class="st11" d="M507.6,711.6c-41.1-141.7-106.4-200.1-158.5-227.2C223.1,418.9,120.4,508.3-13,424
				c-37-23.4-78.6-61.5-168.3-105.3c-32.4-15.8-60-26.9-78.9-34.1"/>
			<path class="st12" d="M519,697.9C477.4,556,411.5,497.6,359,470.4C231.9,404.7,128.6,494-6,409.5
				c-37.3-23.5-79.3-61.7-169.8-105.6c-32.7-15.8-60.6-27-79.5-34.2"/>
			<path class="st13" d="M530.5,684.1c-42.2-142-108.7-200.5-161.6-227.8c-128.2-66-232.2,23.3-367.9-61.5
				C-36.7,371.3-79,333-170.3,289c-32.9-15.9-61.1-27.1-80.2-34.3"/>
			<path class="st14" d="M542,670.4c-42.7-142.1-109.8-200.8-163.2-228.1c-129.3-66.2-233.9,22.9-370.9-62.1
				c-38-23.6-80.7-61.9-172.7-106.1c-33.2-15.9-61.6-27.2-80.9-34.5"/>
		</g>
	</g>
	<g>
		<defs>
			<rect id="SVGID_00000142870316353475489800000005207811274846933393_" x="-15" width="780" height="520"/>
		</defs>
		<clipPath id="SVGID_00000038393724360833213840000000963615314968241831_">
			<use xlink:href="#SVGID_00000142870316353475489800000005207811274846933393_"  style="overflow:visible;"/>
		</clipPath>
		<g style="opacity:0.2;clip-path:url(#SVGID_00000038393724360833213840000000963615314968241831_);">
			<path class="st16" d="M-142.8,237.6c-17.5-0.1-31.8-14.5-31.9-32c0-17.7,14.8-32.4,32.6-32.2c17.4,0.2,31.8,14.7,31.9,32.1
				C-110.1,223.3-124.8,237.7-142.8,237.6z"/>
			<path class="st16" d="M-367.8-301.7c3,12.5,5,23.2,8.1,33.6c16.8,58.2,52.5,101.9,103.9,133.1c20.7,12.6,41.6,24.9,62.3,37.4
				c2.4,1.5,4.7,3.1,6,3.9c-28,45.3-53.5,91.6-84,134.4c-39.4,55.3-96.3,78.8-163.3,69.2c-77.6-11.2-126.3-57.8-146.4-133.3
				c-17.4-65,12-142.8,67.8-180.2c24.4-16.4,50-31,75.1-46.3C-413.8-264.8-387.9-278-367.8-301.7z M-327.2-62.6
				c-0.3-46.7-38.2-84.3-84.5-83.9c-46.1,0.4-83.4,37.7-83.8,83.9c-0.4,46,37.8,84.2,84.3,84.2C-364.6,21.6-326.9-16.1-327.2-62.6z"
				/>
			<path class="st16" d="M-411.9-30.4c-17.4-0.2-31.8-14.9-31.7-32.2c0.1-17.7,15.1-32.3,32.9-32c17.6,0.3,31.5,14.6,31.5,32.3
				C-379.3-44.2-393.7-30.1-411.9-30.4z"/>
			<path class="st16" d="M-142.1-363.3c17.5,0.1,31.8,14.5,31.9,32c0,17.7-14.8,32.4-32.6,32.2c-17.4-0.2-31.8-14.7-31.9-32.1
				C-174.7-349-160.1-363.4-142.1-363.3z"/>
			<path class="st16" d="M96.7-287.5c-12.5,3-23.2,5-33.6,8.1C4.8-262.7-38.8-227-70-175.6c-12.6,20.7-24.9,41.6-37.4,62.3
				c-1.5,2.4-3.1,4.7-3.9,6c-45.3-28.1-91.6-53.6-134.4-84.1c-55.3-39.4-78.8-96.3-69.2-163.3c11.2-77.6,57.8-126.3,133.3-146.4
				c65-17.4,142.8,12,180.2,67.8c16.4,24.4,31,50,46.3,75.1C59.8-333.6,72.9-307.7,96.7-287.5z M-142.4-247
				c46.7-0.3,84.3-38.2,83.9-84.5c-0.4-46.1-37.7-83.4-83.9-83.8c-46-0.4-84.2,37.8-84.2,84.3C-226.6-284.3-188.9-246.7-142.4-247z"
				/>
			<path class="st16" d="M157-62.2c-0.1,17.5-14.5,31.8-32,31.9c-17.7,0-32.4-14.8-32.2-32.6c0.2-17.4,14.7-31.8,32.1-31.9
				C142.7-94.9,157.1-80.2,157-62.2z"/>
			<path class="st16" d="M81.2,176.5c-3-12.5-5-23.2-8.1-33.6C56.4,84.7,20.7,41-30.7,9.8C-51.5-2.7-72.3-15.1-93.1-27.6
				c-2.4-1.5-4.7-3.1-6-3.9C-71-76.8-45.5-123.1-15-165.9c39.4-55.3,96.3-78.8,163.3-69.2c77.6,11.2,126.3,57.8,146.4,133.3
				c17.4,65-12,142.8-67.8,180.2c-24.4,16.4-50,31-75.1,46.3C127.3,139.6,101.4,152.8,81.2,176.5z M40.7-62.5
				c0.3,46.7,38.2,84.3,84.5,83.9c46.1-0.4,83.4-37.7,83.8-83.9c0.4-46-37.8-84.2-84.3-84.2C78-146.8,40.4-109.1,40.7-62.5z"/>
			<path class="st16" d="M-381.5,161.9c12.5-3,23.2-5,33.6-8.1C-289.7,137-246,101.4-214.8,49.9c12.6-20.7,24.9-41.6,37.4-62.3
				c1.5-2.4,3.1-4.7,3.9-6c45.3,28.1,91.6,53.6,134.4,84.1C16.2,105.1,39.7,162,30.1,229c-11.2,77.6-57.8,126.3-133.3,146.4
				c-65,17.4-142.8-12-180.2-67.8c-16.4-24.4-31-50-46.3-75.1C-344.6,207.9-357.8,182-381.5,161.9z M-142.5,121.3
				c-46.7,0.3-84.3,38.2-83.9,84.5c0.4,46.1,37.7,83.4,83.9,83.8c46,0.4,84.2-37.8,84.2-84.3C-58.2,158.7-95.9,121.1-142.5,121.3z"
				/>
		</g>
	</g>
</g>
</svg>
