<?xml version="1.0" encoding="utf-8"?>
<!-- Generator: Adobe Illustrator 25.4.1, SVG Export Plug-In . SVG Version: 6.00 Build 0)  -->
<svg version="1.1" id="bg_welcome" xmlns="http://www.w3.org/2000/svg" xmlns:xlink="http://www.w3.org/1999/xlink" x="0px" y="0px"
	 viewBox="0 0 1200 800" style="enable-background:new 0 0 1200 800;" xml:space="preserve">
<style type="text/css">
	.st0{clip-path:url(#SVGID_00000137132600154109392040000011687319705168583828_);fill:#458F8D;}
	.st1{opacity:0.5;clip-path:url(#SVGID_00000121263531801839137980000016389651858316771489_);}
	.st2{opacity:0.2;fill:url(#SVGID_00000132062933653415625300000002237325588243599247_);enable-background:new    ;}
	.st3{opacity:0.2;}
	.st4{fill:#2E3237;}
	.st5{opacity:0.5;clip-path:url(#SVGID_00000181801596180891677310000000771850044932621185_);}
	.st6{fill:none;stroke:#DEA69C;stroke-width:8;stroke-linecap:round;stroke-linejoin:bevel;stroke-miterlimit:10;}
	.st7{fill:none;stroke:#E8D7A5;stroke-width:8;stroke-linecap:round;stroke-linejoin:bevel;stroke-miterlimit:10;}
	.st8{fill:none;stroke:#7CC251;stroke-width:8;stroke-linecap:round;stroke-linejoin:bevel;stroke-miterlimit:10;}
	.st9{fill:none;stroke:#458F8D;stroke-width:8;stroke-linecap:round;stroke-linejoin:bevel;stroke-miterlimit:10;}
	.st10{fill:none;stroke:#5A90BC;stroke-width:8;stroke-linecap:round;stroke-linejoin:bevel;stroke-miterlimit:10;}
	.st11{fill:none;stroke:#59616B;stroke-width:8;stroke-linecap:round;stroke-linejoin:bevel;stroke-miterlimit:10;}
	.st12{fill:none;stroke:#7788A4;stroke-width:8;stroke-linecap:round;stroke-linejoin:bevel;stroke-miterlimit:10;}
	.st13{fill:none;stroke:#D583B7;stroke-width:8;stroke-linecap:round;stroke-linejoin:bevel;stroke-miterlimit:10;}
	.st14{fill:none;stroke:#BB8D9A;stroke-width:8;stroke-linecap:round;stroke-linejoin:bevel;stroke-miterlimit:10;}
	.st15{opacity:0.2;clip-path:url(#SVGID_00000133491372812281179660000015276024826029277089_);}
	.st16{fill:#59616B;}
</style>
<g>
	<g>
		<defs>
			<rect id="SVGID_1_" width="1200" height="800"/>
		</defs>
		<clipPath id="SVGID_00000080892199958994071450000006122838328663956132_">
			<use xlink:href="#SVGID_1_"  style="overflow:visible;"/>
		</clipPath>
		
			<rect x="-89.4" style="clip-path:url(#SVGID_00000080892199958994071450000006122838328663956132_);fill:#458F8D;" width="1289.7" height="800"/>
	</g>
	<g>
		<defs>
			<rect id="SVGID_00000018226075061548382520000005629114449425658005_" width="1200" height="800"/>
		</defs>
		<clipPath id="SVGID_00000069364295643722057600000016928672908360203682_">
			<use xlink:href="#SVGID_00000018226075061548382520000005629114449425658005_"  style="overflow:visible;"/>
		</clipPath>
		<g style="opacity:0.5;clip-path:url(#SVGID_00000069364295643722057600000016928672908360203682_);">
			
				<linearGradient id="SVGID_00000132050695697637963520000018079799585933429389_" gradientUnits="userSpaceOnUse" x1="600.2982" y1="381.3125" x2="1411.3026" y2="381.3125" gradientTransform="matrix(1 0 0 -1 0 802)">
				<stop  offset="0" style="stop-color:#59616B"/>
				<stop  offset="0.1242" style="stop-color:#606872"/>
				<stop  offset="0.3044" style="stop-color:#747A83"/>
				<stop  offset="0.5187" style="stop-color:#93989F"/>
				<stop  offset="0.7593" style="stop-color:#BFC2C5"/>
				<stop  offset="1" style="stop-color:#F3F3F3"/>
			</linearGradient>
			<path style="opacity:0.2;fill:url(#SVGID_00000132050695697637963520000018079799585933429389_);enable-background:new    ;" d="
				M1397.2,121.7c-2.9-2.6-6.2-4.5-9.7-5.8c1.5-16,2.2-54.3-23.1-80.8c-21.1-22.2-54.3-30.8-99.1-25.8c-13.1,1.4-24.3,4.5-33.5,8.9
				c-15.4-61.5-42.5-102.8-80.9-122.6c-36.8-18.9-83.1-17.5-133.7,4c-23.4,9.8-43.4,4.8-66.5-0.9c-11.7-2.9-23.7-6-36.6-7.1
				c-20-1.7-37.5,9.2-56,20.6c-19.4,12-39.4,24.5-64,23.5c-20.9-0.8-40.2,8.8-56.2,27.4c-14.3,3.8-30.8,9.5-33.1,34.5
				c-7.1,1.7-18.6,5.7-28.8,14.3c-0.2,0.2-0.5,0.3-0.6,0.6c-0.3,0.3-0.6,0.5-0.9,0.8c-0.2,0.2-0.3,0.3-0.5,0.5
				c-2.8,2.5-5.2,5.2-7.4,8.5l0,0c-7.8,10.5-10.8,20.9-8.9,31.4c1.1,5.8,3.5,10.9,6.8,15.4c4.3,8.3,10.2,13.5,14.8,16.8
				c-13.5,22.9-39.8,80.2-30,166.2c0,0.2,0,0.3,0,0.5c5.2,29.1,7.1,44.2-8.6,70.9c-9.4,15.8-17.5,31.1-23.5,42.2
				c-5.1,9.2-8.9,16.5-10.9,19.2c-7.8,11.7-10.2,28.3,6.5,40.2c12.2,8.6,21.8,8.9,27.1,9.1c0.5,0,0.9,0,1.4,0
				c0.6,0.3,1.4,0.6,2.2,0.9c5.5,2.3,9.1,4.2,10.5,5.2c3.1,10.6,1.8,18.8-3.7,23.8c-2,1.8-2.8,4.6-2.2,7.2l0.2,0.8
				c1.4,6.5,5.5,24.3,20.2,29.1c0.2,10.8,0.6,28.3,14.8,33.2c2.2,0.8,4.2,1.4,6,2c2.9,0.9,6.5,2.2,8.3,2.9
				c-1.2,18-1.1,58.6,23.7,75.7c28.3,19.5,64.9,16.5,118.8,4.3c1.5-0.3,3.2-0.6,4.9-0.9c10.3-1.8,23.1-4.2,32.5,2.5
				c76.8,97.4,29.1,199.2,6.2,248.3c-0.9,2-0.9,4.3-0.2,6.3c24.5,55.7,91.5,83.8,199.7,83.8c100.3,0,184.2-28.2,213.5-71.8
				c13.4-19.8,15.7-42.9,7.1-67.1c36.3-29.8,61.5-88.6,31.2-148c-25.7-50.5-35.4-92.5-38-105.8c0.2-0.3,0.5-0.5,0.6-0.8
				c7.2-9.4,16.2-21.2,22.6-39.7c20.5-58.2-15.4-109.7-16.9-111.8c-0.2-0.2-0.3-0.3-0.5-0.6c-0.3-8.6-2.5-17.4-7.4-26.2
				c-20.8-38.2-6.6-78.8,0.9-94.9c8.9,5.5,21.1,11.1,34.6,11.1c3.7,0,7.5-0.5,11.4-1.4c24.5-5.8,43.5-30.5,56.8-73.2
				C1416,173.8,1415.4,137.7,1397.2,121.7z"/>
			<g class="st3">
				<path class="st4" d="M1397.2,121.7c-2.9-2.6-6.2-4.5-9.7-5.8c1.5-16,2.2-54.3-23.1-80.8c-21.1-22.2-54.3-30.8-99.1-25.8
					c-13.1,1.4-24.3,4.5-33.5,8.9c-15.4-61.5-42.5-102.8-80.9-122.6c-36.8-18.9-83.1-17.5-133.7,4c-23.4,9.8-43.4,4.8-66.5-0.9
					c-11.7-2.9-23.7-6-36.6-7.1c-20-1.7-37.5,9.2-56,20.6c-19.4,12-39.4,24.5-64,23.5c-20.9-0.8-40.2,8.8-56.2,27.4
					c-14.3,3.8-30.8,9.5-33.1,34.5c-7.1,1.7-18.6,5.7-28.8,14.3c-0.2,0.2-0.5,0.3-0.6,0.5c-0.3,0.3-0.6,0.6-1.1,0.9
					c-0.2,0.2-0.3,0.3-0.5,0.5c-2.8,2.5-5.2,5.2-7.4,8.5l0,0c-7.8,10.5-10.8,20.9-8.9,31.4c1.1,5.8,3.5,10.9,6.8,15.4
					c4.3,8.3,10.2,13.5,14.8,16.8c-13.5,22.9-39.8,80.2-30,166.2c0,0.2,0,0.3,0,0.5c5.2,29.1,7.1,44.2-8.6,70.9
					c-9.2,15.8-17.5,31.1-23.5,42.2c-5.1,9.2-8.9,16.5-10.9,19.2c-7.8,11.7-10.2,28.3,6.5,40.2c12.2,8.6,21.8,8.9,27.1,9.1
					c0.5,0,0.9,0,1.4,0c0.6,0.3,1.4,0.6,2.2,0.9c5.5,2.3,9.1,4.2,10.5,5.2c3.1,10.6,1.8,18.8-3.7,23.8c-2,1.8-2.8,4.6-2.2,7.2
					l0.2,0.8c1.4,6.5,5.5,24.3,20.2,29.1c0.2,10.8,0.6,28.3,14.8,33.2c2.2,0.8,4.2,1.4,6,2c2.9,0.9,6.5,2.2,8.3,2.9
					c-1.2,18-1.1,58.6,23.7,75.7c28.3,19.5,64.9,16.5,118.8,4.3c1.5-0.3,3.2-0.6,4.9-0.9c10.3-1.8,23.1-4.2,32.5,2.5
					c76.8,97.4,29.1,199.2,6.2,248.3c-0.9,2-0.9,4.3-0.2,6.3c24.5,55.7,91.5,83.8,199.7,83.8c100.3,0,184.2-28.2,213.5-71.8
					c13.4-19.8,15.7-42.9,7.1-67.1c36.3-29.8,61.5-88.6,31.2-148c-25.7-50.5-35.4-92.5-38-105.8c0.2-0.3,0.5-0.5,0.6-0.8
					c7.2-9.4,16.2-21.2,22.6-39.7c20.5-58.2-15.4-109.7-16.9-111.8c-0.2-0.2-0.3-0.3-0.5-0.6c-0.3-8.6-2.5-17.4-7.4-26.2
					c-20.8-38.2-6.6-78.8,0.9-94.9c8.9,5.5,21.1,11.1,34.6,11.1c3.7,0,7.5-0.5,11.4-1.4c24.5-5.8,43.5-30.5,56.8-73.2
					C1416,173.8,1415.4,137.7,1397.2,121.7z M1266.9,24.3c39.8-4.3,68.9,2.8,86.5,21.1c20.5,21.5,20.5,53.2,19.1,67.7
					c-8.8,0-17.5,2.3-24.5,5.4c-12.6,5.7-38.3,27.8-60.3,48.3c-4.8-16.2-10-29.5-13.7-36.8c-0.2-0.3-0.3-0.6-0.6-0.9
					c-0.6-7.8-1.5-12.9-1.7-14c-0.3-2-6-33.8-33.1-51.4c-0.3-9.4-1.5-19.5-3.7-30.3C1243.2,28.8,1253.8,25.7,1266.9,24.3z
					 M1217.8,498.6c-41.4,60.2-67.8,112-1.1,184.8c17.5,19.2,25.7,39.5,23.8,60.3c-3.1,36.9-35.4,69.4-61.8,90
					c-12.6,9.8-19.1,20.5-19.2,31.7c0,3.4,0.6,6.6,1.5,9.4c-4.9-1.4-10-3.8-13.1-8.5c-6.2-8.9-4.2-24.6,5.8-45.5
					c29.4-62,39.5-96.8,16.8-124.2c-1.4-14-7.4-30-17.8-47.5c-25.8-43.5-12-84.6,0.2-120.8c8.8-26,17.1-50.9,7.2-71.2
					c27.2-2.5,57.1-8.5,68.9-41.1c1.1-2.9,2-6.2,3.1-9.4C1237.4,430,1239.8,466.6,1217.8,498.6z M1134,690.2
					c-6.6-5.7-15.7-11.7-26.2-18.6c-38-25.1-85.2-56.2-66.8-103.7c18-46.5,17.4-80.2,14.9-97.8c10,4,18.2,5.7,25.1,5.7
					c11.2,0,19.4-4,27.2-8c7.2-3.7,14.8-7.4,25.7-8.5c2.9-0.3,5.8-0.6,8.9-0.8c11.7,14.5,5.8,34.6-4.5,65.1
					c-12.6,37.4-28.3,84,1.1,133.4c15.5,26.2,19.8,46.9,12.8,61.8c-1.7,3.7-4.2,6.8-6.8,9.4c1.1-3.1,1.8-6.2,2-9.5
					C1148.3,708,1143.7,698.5,1134,690.2z M1225.2,371.1c-3.5,15.1-6.8,29.2-10.5,39.5c-10.2,28-37.7,29.8-66.9,32
					c-5.1,0.3-10.3,0.8-15.4,1.2c-13.7,1.4-22.9,6-30.9,10c-12.3,6.2-20.5,10.3-42.2,0.9c-2.3-0.9-4.8-0.8-6.8,0.5
					c-16.8-23.4-19.5-48.8-8.3-75.7c8.8-21.1,23.2-35.4,24-36.2c5.2-4,10.6-8.5,16.2-13.1c25.4-21.2,56.9-47.7,108.2-61.5
					c57.5-15.5,75.5-61.7,80.2-99.4c9.8,32.9,18,77.2,9.5,96.6c-2.5,5.7-5.5,6.6-6.5,6.9C1246,281.4,1234.9,329.1,1225.2,371.1z
					 M970,405.8c-2.6-3.4-4.2-7.4-4.6-11.4c-0.8-7.2,2.2-14.9,8.5-22.3c8-9.5,10.2-20,9.5-29.8c6.9,6.2,13.5,10.8,19.7,13.8
					c-9.1,5.8-16.2,11.7-20.8,17.8C973.8,384.8,968.6,394.5,970,405.8z M984.6,322.3c-2.8-2.9-5.4-5.5-8-8.3c-2-2-3.8-4-5.8-6l0,0
					c-21.1-21.8-37.4-40.8-57.8-86.5c-25.5-56.9-43.2-72.3-95.2-82.3c-0.3,0-0.6-0.2-0.9-0.2c-103.7-7.2-128.6-84.6-129.7-87.8
					c-0.9-3.2-4-5.4-7.2-5.4c-0.8,0-1.5,0.2-2.2,0.3c-1.2,0.3-2.3,1.1-3.1,1.8c-0.3-6.6,1.2-12.3,4.6-17.4c1.5-2,3.4-4.2,5.5-6.3
					c0.3-0.3,0.6-0.6,0.9-0.8c0.3-0.2,0.5-0.5,0.8-0.6c7.8-6.2,17.5-9.4,22.9-10.8c14.3,16.2,75.8,82.5,147.7,106.8
					c31.1,10.5,51.5,26.2,69.5,39.8c27.5,21.1,51.4,39.2,98.8,29.7c33.8-6.8,61.1-5.8,90-4.9c16.8,0.6,34.2,1.1,52.8,0
					c37.5-2.2,72.9-32.5,90.6-50c0.8,11.4,0.9,27.5-2.5,44.5c-7.8,40.5-30.6,66-67.7,76.2c-54.3,14.8-87.4,42.3-113.8,64.5
					C1039.1,348.5,1022.8,362.2,984.6,322.3z M1226.3,74.2c20.2,10.5,27.5,31.8,29.7,40.2c-10,11.1-49.5,51.8-88.8,54.2
					c-17.8,1.1-34.9,0.5-51.4-0.2c-25.8-0.9-52.6-1.7-84,3.5c-13.2-6.9-135.5-71.4-227.5-151.1c2.8-1.7,5.4-3.5,7.8-5.5
					c32.2-26.2,88.6,5.2,126,26.2c6.5,3.5,12.5,6.9,17.8,9.8c8,4.2,15.8,10.9,24.2,18c30.8,26.3,69.1,59.2,160.3,15.1
					C1176.6,66.8,1205.5,63.2,1226.3,74.2z M793.7-49.1c29.2,1.1,52.3-13.2,72.6-25.8c17.1-10.6,31.7-19.7,46.8-18.5
					c11.7,0.9,23.1,3.8,34.2,6.6c23.5,6,48,12,76,0.2c32.3-13.7,79.5-25.7,120.8-4.5c36.2,18.6,61.5,59.8,75.4,122.5c0,0,0,0,0,0.2
					c2,8.8,3.2,17.1,3.8,24.8c-23.8-7.7-53.8-2.9-89.2,14.2c-82.3,39.8-114.9,11.8-143.7-12.9c-9.1-7.7-17.5-15.1-27.1-20
					c-5.2-2.8-11.2-6-17.5-9.5C904.8,5.1,842.8-29.4,802.8,3.4C799.5,6,796,8.3,792.5,10c-14.6-13.1-28.2-26.5-40.2-40.2
					C764.6-43.2,778.5-49.5,793.7-49.1z M739.7-21.5c48.9,56.3,123.1,109.2,177.2,143.8c37.1,23.8,70.2,42.5,89.8,53.4
					c-30.3,1.8-47.8-11.4-70.9-28.9c-18.9-14.5-40.5-30.9-73.8-42.2c-3.4-1.1-6.8-2.5-10.2-3.8c0.5,0.2,0.9,0.2,1.4,0.2
					c4.9,0,8.9-4,8.9-8.9s-4-8.9-8.9-8.9s-8.9,4-8.9,8.9c0,3.1,1.5,5.7,3.8,7.4C784.6,72.5,730.5,13.1,719.8,1.1
					C720.5-14.2,726.6-17.8,739.7-21.5z M1082.8,944c-99.4,0-161.4-24.2-184.3-71.7c23.1-49.5,71.5-158.9-10.2-261.7
					c-0.3-0.5-0.8-0.9-1.2-1.2c-1.4-1.1-2.8-2-4.3-2.8c10.9-6.9,29.2-19.4,44.8-33.8c1.4-1.2-0.3-3.4-1.8-2.5
					c-20,12.6-48.2,24.6-63.8,30.9c-7.4-0.2-14.3,1.1-20,2.2c-1.7,0.3-3.4,0.6-4.8,0.8c-0.2,0-0.3,0-0.5,0.2
					c-58.2,13.1-86.2,12.5-107.1-2c-19.4-13.4-18-51.7-17.1-63.4c0.8-10.8-9.5-14.2-18.8-17.2c-1.7-0.6-3.7-1.2-5.7-1.8
					c-4.3-1.5-4.5-13.5-4.6-19.4c0-2.6-0.2-4.9-0.3-6.8c0-0.2-0.2-0.5-0.2-0.6c0.2-0.2,0.5-0.2,0.6-0.3c1.4-0.6,2.6-1.4,3.8-2.3
					c0.9-0.5,1.8-1.1,2.9-1.4c4.2-1.4,9.1-1.7,14-1.7c2.5,0,4.9,0.2,7.4,0.3c2.8,0.3,5.7,0.5,8.5,0.2c2.9-0.3,5.8-0.8,8.6-1.8
					c2.8-1.1,5.5-2.9,6.8-5.5c-2.8,1.1-5.2,1.2-7.7,1.1c-2.5-0.2-4.9-0.5-7.5-0.9c-2.5-0.5-4.9-0.9-7.5-1.5
					c-2.9-0.6-5.8-0.9-8.8-0.9c-5.8,0-12,1.1-17.4,4.6c-1.4,0.9-2.6,2-3.7,3.2c-0.8,1.1-1.5,2-2.3,2.9l0,0c-1.4-1.4-3.1-2.2-5.1-2.2
					c-6.9-0.2-10.2-7.8-12.2-15.5c5.5-7.1,9.7-18.8,4.3-36.8c-2-6.6-9.7-10.3-18.9-14.2c-0.9-0.3-1.7-0.6-2.2-0.9
					c-2.2-1.1-4.5-1.2-6.8-1.2c-4.2-0.2-10.5-0.3-18.8-6.3c-2.6-1.8-10.5-7.4-2.6-19.4c2.3-3.4,6.2-10.5,11.5-20.5
					c6.3-11.5,14.2-26,23.4-41.7c18.3-31.2,16-50.3,10.5-81.1c-0.2-0.8-0.2-1.5-0.3-2.3c3.5-4.6,7.4-8.6,11.5-12.2
					c7.1-5.7,14.8-10.2,23.4-12.8l6.5-1.7l6.6-1.2c4-0.6,8.6-0.3,13.1,0.2c4.6,0.6,9.1,1.4,13.7,2.6c4.6,1.1,9.1,2.5,13.4,4.6
					c-3.2-3.8-7.5-6.5-11.8-8.8c-4.5-2.2-9.1-4-13.8-5.4c-4.8-1.4-9.8-2.2-15.4-1.8l-7.5,0.9c-2.5,0.6-4.9,1.2-7.4,1.8
					c-9.8,2.9-18.8,8.8-25.5,16.3c-2.9,3.1-5.4,6.6-7.4,10.3C656.3,162.6,680.2,112,692.2,92c2.5,3.2,5.2,6.5,8.2,9.8
					c19.4,21.4,54.9,47.7,114.3,52c43.8,8.5,59.2,18.8,83.8,73.5c21.2,47.5,38.9,68.2,60.2,90.2c5.4,8.8,15.4,29.5,2.9,44.2
					c-11.4,13.4-12.8,25.7-12,33.7c1.1,10.3,6.5,19.8,15.2,26.6c2.5,1.8,5.4,2.9,8.2,2.9c2.6,0,5.4-0.8,7.7-2.5
					c4.8-3.4,6.8-9.5,4.8-15.1c-2.2-6.3-1.5-11.8,8.2-24.6c5.2-6.9,15.4-14.2,29.2-21.2c0.8,0,1.5,0,2.3,0c3.7,0,7.4-0.5,11.1-1.4
					c-14.2,25.2-25.4,64.2,4.2,104.5c-0.5,1.2-0.6,2.6-0.5,4c2.6,15.1,4.3,47.1-13.5,93.1c-22.9,59.1,34.5,96.9,72.5,122
					c10,6.6,18.6,12.3,24.6,17.4s8.8,10.3,8.5,15.8c-0.6,10.9-13.1,21.7-17.7,24.9c-2.9,2-4.2,5.7-2.8,9.1c1.1,2.9,4,4.9,7.1,4.9
					c0.3,0,0.8,0,1.1,0c1.4-0.2,33.4-4.9,46-31.1c0.3-0.6,0.6-1.4,0.9-2.2c3.4,18.2-4.9,44.3-26.9,90.9
					c-12.6,26.5-14.2,46.9-4.6,60.8c10.5,15.1,30.3,16.6,38,16.6c1.7,0,2.9-0.2,3.1-0.2c3.1-0.3,5.7-2.3,6.6-5.4
					c0.9-2.9,0-6.2-2.5-8.2c0,0-6-5.2-6-12.5c0.2-7.8,7.2-15.1,13.4-19.8c10.8-8.5,22.5-18.6,33.1-30.5
					c5.8,44.2,39.1,64.6,55.7,72.3C1245.4,921.7,1169.7,944,1082.8,944z M1290.5,829.2c4.5,14.5,4,28.2-1.5,40.6
					c-4.9-8.5-11.7-21.7-14.9-35.4C1278.9,834.2,1284.5,832.5,1290.5,829.2z M1295.4,811.2c-0.5,0.3-0.9,0.8-1.4,1.1
					c-0.6,0.2-1.2,0.2-1.7,0.5c-1.7,0.8-3.1,2-3.8,3.5c-6.9,4.5-12.8,6.3-16.5,6.3c-0.2-2.2-0.2-4.5,0-6.6
					c0.5-7.5,8.6-20.2,17.1-33.5c17.5-27.4,42.3-65.8,32.6-108.9c0.8,1.5,1.4,2.9,2.2,4.5C1355.2,739.5,1318.9,792.2,1295.4,811.2z
					 M1305.8,638.2c-20.6-31.5-23.5-45.4-18.5-57.2C1290.6,594.2,1296.3,614.2,1305.8,638.2z M1305.5,520.9
					c-5.7,16.3-13.5,26.5-20.3,35.5c-17.5,23.2-25.8,38.9,9.2,92c31.7,48,4,91.1-18.3,125.7c-10.5,16.3-18.9,29.4-19.5,40.9
					c-1.1,18,6,37.1,12.9,51.2c-16.2-10.8-35.5-31.8-33.8-69.4c10.8-15.7,18.6-33.1,20.2-52c0.6-7.1,0.3-14-0.9-20.9v-0.2
					c0,0,0-0.2-0.2-0.5c0-0.5-0.2-0.8-0.2-1.2c-1.1-6.3-4.2-30.3,3.5-58.3c5.4-19.5-1.5-41.7-8.8-65.2c-6.6-21.1-13.4-43.1-9.7-60.9
					c2.5-12.6,14-27.8,26-44c12.5-16.8,26.8-35.7,33.4-56C1307.2,455.7,1317.4,487.5,1305.5,520.9z M1253.4,484.6
					c-13.1,17.5-25.5,34.2-28.8,50.2c-4.3,21.7,2.9,45.5,10.2,68.5c6.6,21.4,12.9,41.5,8.6,56.8c-2.6,9.4-4,18.2-4.8,26.3
					c-3.1-4.5-6.6-8.8-10.6-13.1c-59.4-64.8-37.5-107.7,2.5-165.8c36.9-53.7,14.3-116,8.9-129.4c0.3-1.1,0.5-2.3,0.8-3.4
					c8.3-36,18.6-80.9,39.8-87.1c0.6-0.2,1.2-0.5,1.8-0.6c-8.8,19.2-23.8,64,0,107.8C1298.3,424.5,1275.4,455.1,1253.4,484.6z
					 M1384.5,224.3c-11.4,36.6-27.2,58.5-45.8,62.9c-17.8,4.3-35.2-7.5-42.9-14c0.2-0.5,0.5-0.8,0.6-1.4c8.8-20.5,4-56.9-4-88.6
					c29.8-27.8,52.9-46.9,62-51.1c7.8-3.5,23.5-7.4,32.8,0.8C1394.6,139.7,1404.2,160.3,1384.5,224.3z"/>
				<circle class="st4" cx="742.2" cy="1.8" r="8.9"/>
				<path class="st4" d="M774,41.7c4.9,0,8.9-4,8.9-8.9s-4-8.9-8.9-8.9c-4.9,0-8.9,4-8.9,8.9C764.9,37.7,768.9,41.7,774,41.7z"/>
				<circle class="st4" cx="810.8" cy="62.3" r="8.9"/>
				<path class="st4" d="M708.5,243.7c-1.2-0.3-2.6,0.2-3.2,1.2c-4.2,6-14.6,10.2-14.8,10.2c-1.2,0.5-2,1.5-2,2.9
					c0,1.2,0.8,2.5,2,2.8c1.2,0.5,4.6,1.5,9.1,3.2c-1.1,6.3-3.2,24.6,5.2,36.3c13.1,0,22.8-4.6,52.3-16.9c1.2,0.3,2.2,0.6,2.6,0.6
					c0.2,0,0.3,0,0.6,0c0.9,0,1.7-0.3,2.3-0.9c0.8-0.8,0.9-1.8,0.6-2.9C760.8,271.2,729.2,248.9,708.5,243.7z M708.9,250.2
					c15.7,4.6,34.2,17.2,43.1,25.4c-13.2-4.3-37.5-12.6-52.6-18C702.6,255.7,706.3,253.2,708.9,250.2z"/>
				<path class="st4" d="M657.5,412.2c-4.2-2.6-14.2-1.4-14.2-1.4c-6.9,1.7-4,4.2,0,4.3c4,0.2,14.3,3.8,18.2,3.4
					C665.1,417.8,661.7,414.6,657.5,412.2z"/>
				<path class="st4" d="M689.1,399.5c-0.6,3.8-0.8,7.1-1.2,10.2c-0.3,3.1-0.9,5.8-1.7,8.3s-2,4.5-3.7,6.6c-0.8,1.2-2,2.2-3.1,3.2
					c-1.2,1.2-2.6,2-4,3.5c3.7,0.9,7.7,0.9,11.4-1.1c3.7-1.8,6.9-5.4,8-9.5c1.4-4,1.2-8.2,0.2-11.8
					C693.8,405.4,692.2,402,689.1,399.5z"/>
			</g>
		</g>
	</g>
	<g>
		<defs>
			<rect id="SVGID_00000023250127211735931340000000926948099360917688_" width="1200" height="800"/>
		</defs>
		<clipPath id="SVGID_00000121247015143809161130000012784799780436708520_">
			<use xlink:href="#SVGID_00000023250127211735931340000000926948099360917688_"  style="overflow:visible;"/>
		</clipPath>
		<g style="opacity:0.5;clip-path:url(#SVGID_00000121247015143809161130000012784799780436708520_);">
			<path class="st6" d="M715.7,1200.6C656.6,983.4,560.8,894.5,484,853.5c-185.5-99.2-338.3,39.4-534.8-88.5
				c-54.5-35.5-115.5-93.5-247.7-159.7c-47.7-23.8-88.5-40.8-116.2-51.4"/>
			<path class="st7" d="M733.4,1179.4c-60-217.4-156.8-306.5-234.2-347.5C312,732.3,158.2,870.8-40,742.5
				c-54.9-35.5-116.6-93.8-249.8-160.2c-48.2-24-89.2-40.9-117.2-51.5"/>
			<path class="st8" d="M750.9,1158.3c-60.8-217.5-158.5-306.8-236.5-348.2C325.5,710.3,170.8,848.6-29.2,720
				c-55.5-35.7-117.7-94-252.2-160.6c-48.5-24-90-40.9-118.3-51.8"/>
			<path class="st9" d="M768.6,1137.1c-61.5-217.7-160.2-307.2-238.9-348.6c-190.6-100-346.5,38-548.2-90.9
				c-56-35.8-118.8-94.2-254.5-161.1c-48.9-24.2-90.8-41.1-119.2-52"/>
			<path class="st10" d="M786.3,1116c-62.5-217.8-162-307.5-241.4-349.1c-192.3-100.5-349.1,37.4-552.6-92
				c-56.5-35.8-119.8-94.5-256.8-161.5c-49.4-24.2-91.5-41.2-120.3-52.2"/>
			<path class="st11" d="M804,1094.8c-63.2-218-163.7-307.8-243.8-349.5C366.3,644.5,208.3,782,3.1,652.3
				c-56.9-36-120.9-94.6-258.9-162c-49.8-24.3-92.3-41.4-121.4-52.5"/>
			<path class="st12" d="M821.5,1073.7c-64-218.3-165.4-308.2-246.2-350C379.8,622.6,220.9,760,13.8,630
				c-57.4-36.2-122-94.9-261.2-162.5c-50.3-24.3-93.2-41.5-122.3-52.6"/>
			<path class="st13" d="M839.2,1052.5C774.3,834,672,744,590.6,702c-197.2-101.5-357.2,35.8-566-94.6
				c-58-36.2-123.1-95.1-263.5-162.8c-50.6-24.5-94-41.7-123.4-52.8"/>
			<path class="st14" d="M856.9,1031.4C791.2,812.8,688,722.5,605.8,680.5C406.9,578.6,246,715.7,35.2,584.9
				c-58.5-36.3-124.2-95.2-265.7-163.2c-51.1-24.5-94.8-41.8-124.5-53.1"/>
		</g>
	</g>
	<g>
		<defs>
			<rect id="SVGID_00000093875812202893650540000003442645649068884145_" width="1200" height="800"/>
		</defs>
		<clipPath id="SVGID_00000047042303808199521620000015596481271897363347_">
			<use xlink:href="#SVGID_00000093875812202893650540000003442645649068884145_"  style="overflow:visible;"/>
		</clipPath>
		<g style="opacity:0.2;clip-path:url(#SVGID_00000047042303808199521620000015596481271897363347_);">
			<path class="st16" d="M-196.6,365.5c-26.9-0.2-48.9-22.3-49.1-49.2c0-27.2,22.8-49.8,50.2-49.5c26.8,0.3,48.9,22.6,49.1,49.4
				C-146.3,343.5-168.9,365.7-196.6,365.5z"/>
			<path class="st16" d="M-542.8-464.2c4.6,19.2,7.7,35.7,12.5,51.7c25.8,89.5,80.8,156.8,159.8,204.8c31.8,19.4,64,38.3,95.8,57.5
				c3.7,2.3,7.2,4.8,9.2,6C-308.5-74.5-347.7-3.2-394.6,62.6c-60.6,85.1-148.2,121.2-251.2,106.5C-765.2,151.8-840.2,80.2-871.1-36
				c-26.8-100,18.5-219.7,104.3-277.2c37.5-25.2,76.9-47.7,115.5-71.2C-613.5-407.4-573.7-427.7-542.8-464.2z M-480.3-96.3
				c-0.5-71.8-58.8-129.7-130-129.1c-70.9,0.6-128.3,58-128.9,129.1c-0.6,70.8,58.2,129.5,129.7,129.5
				C-537.8,33.2-479.8-24.8-480.3-96.3z"/>
			<path class="st16" d="M-610.6-46.8c-26.8-0.3-48.9-22.9-48.8-49.5c0.2-27.2,23.2-49.7,50.6-49.2c27.1,0.5,48.5,22.5,48.5,49.7
				C-560.5-68-582.6-46.3-610.6-46.8z"/>
			<path class="st16" d="M-195.5-558.9c26.9,0.2,48.9,22.3,49.1,49.2c0,27.2-22.8,49.8-50.2,49.5c-26.8-0.3-48.9-22.6-49.1-49.4
				C-245.7-536.9-223.2-559.1-195.5-558.9z"/>
			<path class="st16" d="M171.8-442.3c-19.2,4.6-35.7,7.7-51.7,12.5C30.5-404.2-36.6-349.2-84.6-270.2c-19.4,31.8-38.3,64-57.5,95.8
				c-2.3,3.7-4.8,7.2-6,9.2c-69.7-43.2-140.9-82.5-206.8-129.4c-85.1-60.6-121.2-148.2-106.5-251.2
				c17.2-119.4,88.9-194.3,205.1-225.2c100-26.8,219.7,18.5,277.2,104.3c25.2,37.5,47.7,76.9,71.2,115.5
				C115.1-513.2,135.2-473.4,171.8-442.3z M-196-380c71.8-0.5,129.7-58.8,129.1-130c-0.6-70.9-58-128.3-129.1-128.9
				c-70.8-0.6-129.5,58.2-129.5,129.7C-325.5-437.4-267.5-379.5-196-380z"/>
			<path class="st16" d="M264.6-95.7c-0.2,26.9-22.3,48.9-49.2,49.1c-27.2,0-49.8-22.8-49.5-50.2c0.3-26.8,22.6-48.9,49.4-49.1
				C242.6-146,264.8-123.4,264.6-95.7z"/>
			<path class="st16" d="M148,271.5c-4.6-19.2-7.7-35.7-12.5-51.7C109.8,130.3,54.9,63.1-24.2,15.1c-32-19.2-64-38.3-96-57.5
				c-3.7-2.3-7.2-4.8-9.2-6C-86.2-118.2-46.9-189.4,0-255.2c60.6-85.1,148.2-121.2,251.2-106.5c119.4,17.2,194.3,88.9,225.2,205.1
				c26.8,100-18.5,219.7-104.3,277.2c-37.5,25.2-76.9,47.7-115.5,71.2C218.9,214.8,179.1,235.1,148,271.5z M85.7-96.2
				c0.5,71.8,58.8,129.7,130,129.1c70.9-0.6,128.3-58,128.9-129.1c0.6-70.8-58.2-129.5-129.7-129.5
				C143.1-225.8,85.2-167.8,85.7-96.2z"/>
			<path class="st16" d="M-563.8,249.1c19.2-4.6,35.7-7.7,51.7-12.5c89.5-25.8,156.8-80.6,204.8-159.8c19.4-31.8,38.3-64,57.5-95.8
				c2.3-3.7,4.8-7.2,6-9.2c69.7,43.2,140.9,82.5,206.8,129.4C48,161.7,84.2,249.2,69.4,352.3C52.2,471.7-19.5,546.6-135.7,577.5
				c-100,26.8-219.7-18.5-277.2-104.3c-25.2-37.5-47.7-76.9-71.2-115.5C-507.1,319.8-527.4,280-563.8,249.1z M-196.2,186.6
				c-71.8,0.5-129.7,58.8-129.1,130c0.6,70.9,58,128.3,129.1,128.9c70.8,0.6,129.5-58.2,129.5-129.7
				C-66.5,244.2-124.5,186.3-196.2,186.6z"/>
		</g>
	</g>
</g>
</svg>
