<?xml version="1.0" encoding="utf-8"?>
<!-- Generator: Adobe Illustrator 25.4.1, SVG Export Plug-In . SVG Version: 6.00 Build 0)  -->
<svg version="1.1" id="ic_error_connection" shape-rendering="geometricPrecision"
	 xmlns="http://www.w3.org/2000/svg" xmlns:xlink="http://www.w3.org/1999/xlink" x="0px" y="0px" viewBox="0 0 24 24"
	 style="enable-background:new 0 0 24 24;" xml:space="preserve">
<style type="text/css">
	.st0{fill:#C0C0C0;}
	.st1{fill:none;}
</style>
<g id="Group_8828">
	<circle id="Ellipse_601" class="st0" cx="12" cy="18" r="2"/>
	<g id="Group_8825">
		<path id="Path_18883" class="st0" d="M10,4.2C7,4.6,4.2,5.9,1.9,7.9l1.3,1.5C5.1,7.7,7.5,6.6,10,6.2V4.2z"/>
		<path id="Path_18884" class="st0" d="M14,4.2v2c2.5,0.4,4.9,1.5,6.7,3.2l1.3-1.5C19.8,5.9,17,4.6,14,4.2z"/>
	</g>
	<g id="Group_8826">
		<path id="Path_18885" class="st0" d="M10,8.2c-2,0.4-3.9,1.3-5.4,2.7L6,12.3c1.1-1,2.5-1.8,4-2.1V8.2z"/>
		<path id="Path_18886" class="st0" d="M14,8.2v2.1c1.5,0.3,2.9,1.1,4,2.1l1.3-1.5C17.9,9.5,16,8.6,14,8.2z"/>
	</g>
	<g id="Group_8827">
		<path id="Path_18887" class="st0" d="M10,12.3c-1,0.3-1.9,0.8-2.7,1.5l1.3,1.5C9,15,9.5,14.7,10,14.5V12.3z"/>
		<path id="Path_18888" class="st0" d="M14,12.3v2.2c0.5,0.2,1,0.5,1.4,0.8l1.3-1.5C15.9,13.1,15,12.6,14,12.3z"/>
	</g>
	<path id="Path_18889" class="st0" d="M11,3v11.1c0.7-0.1,1.3-0.1,2,0V3H11z"/>
</g>
<path id="Rectangle_4409" class="st1" d="M0,0h24v24H0V0z"/>
</svg>
