<?xml version="1.0" encoding="utf-8"?>
<!-- Generator: Adobe Illustrator 25.4.1, SVG Export Plug-In . SVG Version: 6.00 Build 0)  -->
<svg version="1.1" id="ic_posa" xmlns="http://www.w3.org/2000/svg" xmlns:xlink="http://www.w3.org/1999/xlink" x="0px" y="0px"
	 viewBox="0 0 24 24" style="enable-background:new 0 0 24 24;" xml:space="preserve">
<style type="text/css">
	.st0{fill:#336C6B;}
	.st1{fill:none;}
</style>
<g id="Group_8935">
	<g id="Group_8934">
		<path id="Path_18928" class="st0" d="M12,2C6.5,2,2,6.5,2,12s4.5,10,10,10s10-4.5,10-10S17.5,2,12,2z M12,21.2
			c-5.1,0-9.2-4.1-9.2-9.2S6.9,2.8,12,2.8s9.2,4.1,9.2,9.2S17.1,21.2,12,21.2L12,21.2z"/>
		<path id="Path_18929" class="st0" d="M12,3.5c-4.7,0-8.5,3.8-8.5,8.5s3.8,8.5,8.5,8.5s8.5-3.8,8.5-8.5S16.7,3.5,12,3.5z M8,9.2
			h4.5v0.9H8V9.2z M13.1,13.3h-3V18H9v-5.8h4c1.3,0.1,2.5-0.9,2.6-2.2c0-0.1,0-0.3,0-0.4c0.1-1.3-0.9-2.5-2.2-2.6
			c-0.1,0-0.3,0-0.4,0h-1.2l-3,0V6h4.3c1.9-0.1,3.6,1.3,3.7,3.2c0,0.1,0,0.3,0,0.4c0.1,1.9-1.4,3.6-3.3,3.7
			C13.4,13.3,13.3,13.3,13.1,13.3z"/>
	</g>
</g>
<path id="Rectangle_4543" class="st1" d="M0,0h24v24H0V0z"/>
</svg>
