<?xml version="1.0" encoding="utf-8"?>
<!-- Generator: Adobe Illustrator 25.4.1, SVG Export Plug-In . SVG Version: 6.00 Build 0)  -->
<svg version="1.1" id="Layer_1" xmlns="http://www.w3.org/2000/svg" xmlns:xlink="http://www.w3.org/1999/xlink" x="0px" y="0px"
	 viewBox="0 0 24 30" style="enable-background:new 0 0 24 30;" xml:space="preserve">
<style type="text/css">
	.st0{fill:#FFFFFF;}
</style>
<desc>Created with Sketch.</desc>
<g id="Master-Active_00000043435996027510705310000013565818061366321829_">
	<g id="Group-2_00000168075329610313607670000018429093723595677623_" transform="translate(1.000000, 7.000000)">
		<path id="Path_18873_00000049915803723820569320000002125246093023144089_" class="st0" d="M20.4,15.4c0.4-1.1,0.6-2.2,0.6-3.4
			c0-4.4-2.9-8.2-7.1-9.6C13.7,1,12.4,0,11,0S8.3,1,8.1,2.4c-2.6,0.8-4.8,2.6-6,5.1s-1.4,5.3-0.5,7.8c-1,0.6-1.6,1.7-1.6,2.8
			c0.1,1.2,0.8,2.2,2,2.6c1.1,0.4,2.3,0.1,3.2-0.7c3.5,2.5,8.2,2.5,11.7,0c0.8,0.8,2.1,1.1,3.2,0.7c1.1-0.4,1.9-1.4,2-2.6
			C22.1,17,21.5,15.9,20.4,15.4L20.4,15.4z M11,2c0.6,0,1,0.4,1,1s-0.4,1-1,1c-0.6,0-1-0.4-1-1S10.4,2,11,2z M3,19c-0.6,0-1-0.4-1-1
			c0-0.6,0.4-1,1-1s1,0.4,1,1C4,18.5,3.5,19,3,19z M11,20c-1.8,0-3.6-0.6-5-1.8c0-0.1,0-0.1,0-0.2c0-1.4-1-2.6-2.4-2.9
			c-0.9-2-0.8-4.3,0.1-6.3s2.6-3.6,4.7-4.3C8.9,5.4,9.9,6,11,6s2.1-0.6,2.6-1.6C16.8,5.5,19,8.6,19,12c0,1.1-0.2,2.1-0.6,3.1
			C17,15.3,16,16.6,16,18c0,0.1,0,0.1,0,0.2C14.6,19.3,12.8,20,11,20z M19,19c-0.6,0-1-0.4-1-1c0-0.6,0.4-1,1-1c0.6,0,1,0.4,1,1
			C20,18.5,19.5,19,19,19z"/>
	</g>
</g>
<g>
	<path class="st0" d="M12.1,22.2c0.8,0,1.6-0.3,2.1-0.9l1.3,1.3c-0.9,0.9-2.1,1.4-3.4,1.4c-2.6,0-4.8-2.1-4.8-4.8
		c0-2.6,2.1-4.8,4.8-4.8c1.3,0,2.5,0.5,3.4,1.4l-1.3,1.3c-0.5-0.5-1.3-0.9-2.1-0.9c-1.6,0-3,1.3-3,3C9.1,20.8,10.4,22.2,12.1,22.2z"
		/>
</g>
</svg>
