<?xml version="1.0" encoding="utf-8"?>
<!-- Generator: Adobe Illustrator 25.4.1, SVG Export Plug-In . SVG Version: 6.00 Build 0)  -->
<svg version="1.1" id="Layer_1" xmlns="http://www.w3.org/2000/svg" xmlns:xlink="http://www.w3.org/1999/xlink" x="0px" y="0px"
	 viewBox="0 0 300 100" style="enable-background:new 0 0 300 100;" xml:space="preserve">
<style type="text/css">
	.st0{fill:#333333;}
	.st1{fill:#F2F2F2;}
</style>
<desc>Created with Sketch.</desc>
<g>
	<path class="st0" d="M44.9,77.1c-1.6,0-2.9-1.3-2.9-2.9c0-1.6,1.3-2.9,2.9-2.9c1.6,0,2.9,1.3,2.9,2.9
		C47.9,75.8,46.6,77.1,44.9,77.1z"/>
	<path class="st0" d="M24.7,28.5c0.3,1.1,0.5,2.1,0.7,3c1.5,5.2,4.7,9.2,9.4,12c1.9,1.1,3.7,2.2,5.6,3.4c0.2,0.1,0.4,0.3,0.5,0.4
		c-2.5,4.1-4.8,8.2-7.6,12.1c-3.6,5-8.7,7.1-14.7,6.2c-7-1-11.4-5.2-13.2-12c-1.6-5.9,1.1-12.9,6.1-16.2c2.2-1.5,4.5-2.8,6.8-4.2
		C20.5,31.8,22.9,30.6,24.7,28.5z M28.3,50c0-4.2-3.4-7.6-7.6-7.6c-4.2,0-7.5,3.4-7.6,7.6c0,4.1,3.4,7.6,7.6,7.6
		C25,57.6,28.4,54.2,28.3,50z"/>
	<path class="st0" d="M20.7,52.9c-1.6,0-2.9-1.3-2.9-2.9c0-1.6,1.4-2.9,3-2.9c1.6,0,2.8,1.3,2.8,2.9C23.6,51.7,22.3,52.9,20.7,52.9z
		"/>
	<path class="st0" d="M45,22.9c1.6,0,2.9,1.3,2.9,2.9c0,1.6-1.3,2.9-2.9,2.9c-1.6,0-2.9-1.3-2.9-2.9C42.1,24.2,43.4,22.9,45,22.9z"
		/>
	<path class="st0" d="M66.5,29.8c-1.1,0.3-2.1,0.5-3,0.7c-5.2,1.5-9.2,4.7-12,9.4c-1.1,1.9-2.2,3.7-3.4,5.6
		c-0.1,0.2-0.3,0.4-0.4,0.5c-4.1-2.5-8.2-4.8-12.1-7.6c-5-3.6-7.1-8.7-6.2-14.7c1-7,5.2-11.4,12-13.2c5.9-1.6,12.9,1.1,16.2,6.1
		c1.5,2.2,2.8,4.5,4.2,6.8C63.2,25.6,64.4,27.9,66.5,29.8z M45,33.4c4.2,0,7.6-3.4,7.6-7.6c0-4.2-3.4-7.5-7.6-7.6
		c-4.1,0-7.6,3.4-7.6,7.6C37.4,30.1,40.8,33.4,45,33.4z"/>
	<path class="st0" d="M71.9,50.1c0,1.6-1.3,2.9-2.9,2.9c-1.6,0-2.9-1.3-2.9-2.9c0-1.6,1.3-2.9,2.9-2.9
		C70.6,47.1,71.9,48.4,71.9,50.1z"/>
	<path class="st0" d="M65.1,71.6c-0.3-1.1-0.5-2.1-0.7-3c-1.5-5.2-4.7-9.2-9.4-12c-1.9-1.1-3.7-2.2-5.6-3.4
		c-0.2-0.1-0.4-0.3-0.5-0.4c2.5-4.1,4.8-8.2,7.6-12.1c3.6-5,8.7-7.1,14.7-6.2c7,1,11.4,5.2,13.2,12c1.6,5.9-1.1,12.9-6.1,16.2
		c-2.2,1.5-4.5,2.8-6.8,4.2C69.3,68.2,66.9,69.4,65.1,71.6z M61.5,50c0,4.2,3.4,7.6,7.6,7.6c4.2,0,7.5-3.4,7.6-7.6
		c0-4.1-3.4-7.6-7.6-7.6C64.8,42.4,61.4,45.8,61.5,50z"/>
	<path class="st0" d="M23.4,70.2c1.1-0.3,2.1-0.5,3-0.7c5.2-1.5,9.2-4.7,12-9.4c1.1-1.9,2.2-3.7,3.4-5.6c0.1-0.2,0.3-0.4,0.4-0.5
		c4.1,2.5,8.2,4.8,12.1,7.6c5,3.6,7.1,8.7,6.2,14.7c-1,7-5.2,11.4-12,13.2c-5.9,1.6-12.9-1.1-16.2-6.1c-1.5-2.2-2.8-4.5-4.2-6.8
		C26.8,74.4,25.6,72.1,23.4,70.2z M45,66.6c-4.2,0-7.6,3.4-7.6,7.6c0,4.2,3.4,7.5,7.6,7.6c4.1,0,7.6-3.4,7.6-7.6
		C52.6,69.9,49.2,66.6,45,66.6z"/>
</g>
<g>
	<path class="st1" d="M97,40.2c1-0.2,2.7-0.2,3.7,0L101,43h0.2c0.7-2.3,2.9-3.1,6-3.1c3.6,0,6.3,1.5,6.3,5.5v8.8
		c0,4-2.7,5.5-6.3,5.5c-3.1,0-5.4-0.8-6-3H101l0.3,3v7.4c-1.1,0.1-3.2,0.1-4.3,0V40.2z M109.3,47.2c0-3.2-1.6-3.6-3.7-3.6
		c-2.7,0-3.6,0.7-4.3,2.9v6.6c0.7,2.2,1.6,2.9,4.3,2.9c2.1,0,3.7-0.4,3.7-3.6V47.2z"/>
	<path class="st1" d="M134.7,53.7c0,4.4-3.3,5.9-8.2,5.9c-4.9,0-8.2-1.5-8.2-5.9v-7.8c0-4.5,3.3-6,8.2-6c4.9,0,8.2,1.5,8.2,6V53.7z
		 M130.5,46.8c0-2.8-1.8-3.2-3.9-3.2c-2.1,0-3.9,0.4-3.9,3.2v6c0,2.8,1.8,3.2,3.9,3.2c2.1,0,3.9-0.4,3.9-3.2V46.8z"/>
	<path class="st1" d="M152.3,54.7c0,3.6-2.7,4.9-7,4.9c-1.9,0-4.1-0.1-6.1-0.5c-0.2-1.1-0.2-2.4,0-3.6c1.9,0.4,3.9,0.5,5.5,0.5
		c1.6,0,3.3-0.2,3.3-1.8v-0.7c0-1.2-0.8-1.5-2.1-1.9l-3.5-1c-2.2-0.6-3.4-1.9-3.4-4.2v-1.8c0-3.4,2.9-4.8,7.4-4.8
		c1.7,0,3.5,0.1,5.6,0.6c0.2,1.1,0.2,2.4,0,3.5c-2.2-0.4-3.5-0.5-5.1-0.5c-1.9,0-3.6,0.2-3.6,1.8V46c0,1.1,0.8,1.5,2.1,1.8l3.3,0.9
		c2.4,0.7,3.6,1.8,3.6,4.4V54.7z"/>
	<path class="st1" d="M168.1,56.6h-0.2c-0.6,2.2-2.9,3-5.9,3c-3.5,0-6.2-1.5-6.2-5.4c0-5,2.9-6,6.9-6c1.8,0,3.2,0.1,5.1,0.4v-1.9
		c0-2-1.1-3.1-5-3.1c-1.5,0-3.4,0.1-5.5,0.5c-0.1-1.1-0.1-2.5,0-3.6c2.4-0.4,4.5-0.6,6.7-0.6c5.3,0,8,1.6,8,5.7v13.7
		c-1,0.2-2.7,0.2-3.7,0L168.1,56.6z M167.8,51.5c-1.4-0.3-2.9-0.4-3.8-0.4c-2.5,0-4,0.3-4,2.6c0,2.2,1.6,2.4,3.4,2.4
		c2.5,0,3.5-0.7,4.3-2.4V51.5z"/>
	<path class="st1" d="M189.8,47.2c0-3.2-1.6-3.6-3.7-3.6c-2.7,0-3.6,0.7-4.3,2.9v12.8c-1.1,0.2-3.2,0.2-4.3,0V40.3
		c1-0.1,2.7-0.1,3.7,0l0.3,2.7h0.2c0.6-2.3,2.9-3.1,6-3.1c3.6,0,6.3,1.4,6.3,5.4v13.9c-1.1,0.2-3.2,0.2-4.3,0V47.2z"/>
	<path class="st1" d="M200.5,44h-2.9c-0.1-1-0.1-2.3,0-3.3l2.9-0.2v-4.9c1.1-0.1,3.2-0.1,4.3,0v4.9h5.4c0.1,1,0.1,2.5,0,3.6h-5.4
		v8.3c0,3.4,1.6,3.6,3.1,3.6c0.8,0,1.6-0.1,2.3-0.2c0.1,1,0.1,2.6,0,3.6c-1.1,0.2-2.2,0.3-3.6,0.3c-3.2,0-6.1-1.3-6.1-5.9V44z"/>
	<path class="st1" d="M229.4,51.1c-2.6,0.2-8.2,0.2-11.5,0v1.4c0,2.9,1.8,3.3,4.8,3.3c2.2,0,3.8-0.2,5.8-0.6c0.1,1,0.1,2.6,0,3.6
		c-2.5,0.4-4.5,0.7-6.7,0.7c-5,0-8.2-1.5-8.2-6V46c0-4.6,3.3-6,8-6c5.2,0,7.8,2.3,7.8,7.2V51.1z M225.2,46.7c0-2.8-1.7-3.2-3.6-3.2
		c-1.9,0-3.7,0.3-3.7,3.2v1.7l3.4-0.2h3.9V46.7z"/>
	<path class="st1" d="M233.1,53.6c1.1-0.2,3.2-0.2,4.3,0v5.6c-1.1,0.2-3.2,0.2-4.3,0V53.6z"/>
	<path class="st1" d="M257.8,53.7c0,4.4-3.3,5.9-8.2,5.9s-8.2-1.5-8.2-5.9v-7.8c0-4.5,3.3-6,8.2-6s8.2,1.5,8.2,6V53.7z M253.5,46.8
		c0-2.8-1.8-3.2-3.9-3.2c-2.1,0-3.9,0.4-3.9,3.2v6c0,2.8,1.8,3.2,3.9,3.2c2.1,0,3.9-0.4,3.9-3.2V46.8z"/>
	<path class="st1" d="M263.3,40.3c1.2-0.1,2.5-0.1,3.7,0l0.3,3h0.2c0.6-2.4,2.9-3.4,6.2-3.4c0.1,1,0.1,2.7,0,3.7
		c-4.1,0-5.2,0.8-6.2,3.5v12.1c-1.1,0.2-3.2,0.2-4.3,0V40.3z"/>
	<path class="st1" d="M289.2,58.6l0.2-2.7h-0.2c-0.7,2.3-3,3.1-6,3.1c-3.6,0-6.3-1.5-6.3-5.5v-8.1c0-4,2.7-5.5,6.3-5.5
		c3.1,0,5.4,0.8,6,3.1h0.2l0.3-2.7c1-0.1,2.7-0.1,3.7,0v19.6c0,5.1-3,7.2-9.1,7.2c-1.9,0-4.1-0.1-6.3-0.5c0-1,0.1-2.6,0.4-3.5
		c1.9,0.3,3.7,0.5,5.6,0.5c2.7,0,5.1-0.6,5.1-3.3V58.6z M289.2,46.4c-0.8-2.2-1.6-2.9-4.4-2.9c-2.1,0-3.7,0.4-3.7,3.6v4.5
		c0,3.1,1.6,3.6,3.7,3.6c2.7,0,3.6-0.7,4.4-2.8V46.4z"/>
</g>
</svg>
