<?xml version="1.0" encoding="utf-8"?>
<!-- Generator: Adobe Illustrator 25.4.1, SVG Export Plug-In . SVG Version: 6.00 Build 0)  -->
<svg version="1.1" id="ic_empty_Dark_masternode" xmlns="http://www.w3.org/2000/svg" xmlns:xlink="http://www.w3.org/1999/xlink"
	 x="0px" y="0px" viewBox="0 0 100 100" style="enable-background:new 0 0 100 100;" xml:space="preserve">
<style type="text/css">
	.st0{fill:#336C6B;}
	.st1{fill:#889899;}
</style>
<g>
	<circle id="Ellipse_630" class="st0" cx="52" cy="16.4" r="8.4"/>
	<circle id="Ellipse_631" class="st0" cx="85.6" cy="79.4" r="8.4"/>
	<circle id="Ellipse_632" class="st0" cx="18.4" cy="79.4" r="8.4"/>
	<path class="st0" d="M52.3,67.3c3.4,0,6.9-1.3,9-3.9l5.6,5.6c-3.9,3.9-9,6-14.6,6c-11.2,0-20.6-9-20.6-20.6
		c0-11.2,9-20.6,20.6-20.6c5.6,0,10.7,2.1,14.6,6l-5.6,5.6c-2.1-2.1-5.6-3.9-9-3.9c-6.9,0-12.9,5.6-12.9,12.9
		C39.4,61.3,45,67.3,52.3,67.3z"/>
</g>
<g>
	<path id="Path_18998" class="st1" d="M87.4,70.2c2.3-5,3.5-10.5,3.4-16c-0.1-17.8-12.2-33.3-29.4-37.6c0-0.1,0-0.1,0-0.2
		c0-5.2-4.2-9.4-9.4-9.4c-5.2,0-9.4,4.2-9.4,9.4c0,0.1,0,0.1,0,0.2c-20.8,5.2-33.4,26.2-28.3,47c0.6,2.3,1.3,4.5,2.3,6.6
		c-5.1,1-8.5,5.9-7.5,11c1,5.1,5.9,8.5,11,7.5c2.9-0.5,5.3-2.4,6.6-5c14.5,12.5,35.9,12.5,50.5,0c2.4,4.6,8,6.5,12.6,4.1
		s6.5-8,4.1-12.6C92.7,72.5,90.2,70.7,87.4,70.2z M52,9c4.1,0,7.4,3.3,7.4,7.4s-3.3,7.4-7.4,7.4s-7.4-3.3-7.4-7.4
		C44.6,12.3,47.9,9,52,9z M18.4,86.8c-4.1,0-7.4-3.3-7.4-7.4s3.3-7.4,7.4-7.4s7.4,3.3,7.4,7.4C25.8,83.5,22.5,86.8,18.4,86.8z
		 M52,91c-9,0-17.8-3.3-24.5-9.3c1.3-5-1.8-10.1-6.8-11.4c-0.6-0.2-1.3-0.3-2-0.3c-8.7-18.3-1-40.3,17.4-49c2.1-1,4.4-1.8,6.7-2.4
		c1.2,5,6.2,8.2,11.3,7c3.5-0.8,6.2-3.5,7-7c16.2,4.3,27.6,18.9,27.7,35.6c0,5.5-1.2,10.9-3.6,15.8c-5.2,0.2-9.2,4.5-9,9.7
		c0,0.7,0.1,1.3,0.3,2C69.8,87.7,61,91,52,91z M85.6,86.8c-4.1,0-7.4-3.3-7.4-7.4s3.3-7.4,7.4-7.4s7.4,3.3,7.4,7.4
		C93,83.5,89.7,86.8,85.6,86.8z"/>
	<g>
		<path class="st1" d="M60.1,74.7l-0.8-2c2.2-0.8,4.2-2.1,6-3.6l-4-4c-2.3,2.1-5.5,3.4-9,3.4c-7.7,0-14-6.3-14-14
			c0-7.7,6.3-14,14-14c3.1,0,6.5,1.3,9,3.4l4.1-4.1c-3.6-3.2-8.2-4.9-13-4.9c-4.6,0-8.9,1.5-12.4,4.5l-1.4-1.7c3.9-3.2,8.7-5,13.8-5
			c5.8,0,11.3,2.3,15.4,6.3l0.8,0.8l-7.1,7.1l-0.8-0.8c-2.2-2.2-5.4-3.5-8.3-3.5c-6.5,0-11.8,5.3-11.8,11.8s5.3,11.8,11.8,11.8
			c3.3,0,6.4-1.3,8.2-3.5l0.8-0.9l7.2,7.2l-0.8,0.8C65.5,71.9,63,73.6,60.1,74.7z"/>
	</g>
	<g>
		<path class="st1" d="M43.8,74.4c-8-3.4-13.2-11.3-13.2-20c0-4.6,1.4-9,4.1-12.7l1.8,1.3c-2.4,3.4-3.7,7.3-3.7,11.4
			c0,7.8,4.7,14.9,11.9,18L43.8,74.4z"/>
	</g>
	<g>
		<path class="st1" d="M52.3,76.1c-1.1,0-2.1-0.1-3.2-0.2l0.3-2.2c1.7,0.2,3.4,0.3,5,0.1l0.2,2.2C53.9,76.1,53.1,76.1,52.3,76.1z"/>
	</g>
</g>
</svg>
