<?xml version="1.0" encoding="utf-8"?>
<!-- Generator: Adobe Illustrator 25.4.1, SVG Export Plug-In . SVG Version: 6.00 Build 0)  -->
<svg version="1.1" id="Layer_1" xmlns="http://www.w3.org/2000/svg" xmlns:xlink="http://www.w3.org/1999/xlink" x="0px" y="0px"
	 viewBox="0 0 49 60" style="enable-background:new 0 0 49 60;" xml:space="preserve">
<style type="text/css">
	.st0{fill:#F2F2F2;}
</style>
<g>
	<path class="st0" d="M24.5,44.2c-1,0-1.8-0.8-1.8-1.8c0-1,0.8-1.8,1.8-1.8c1,0,1.8,0.8,1.8,1.8C26.3,43.4,25.5,44.2,24.5,44.2z"/>
	<path class="st0" d="M12.1,14.4c0.2,0.7,0.3,1.3,0.4,1.9c0.9,3.2,2.9,5.6,5.7,7.4c1.1,0.7,2.3,1.4,3.4,2.1c0.1,0.1,0.3,0.2,0.3,0.2
		c-1.6,2.5-3,5.1-4.6,7.4c-2.2,3.1-5.3,4.4-9,3.8c-4.3-0.6-7-3.2-8.1-7.4c-1-3.6,0.7-7.9,3.7-10c1.3-0.9,2.8-1.7,4.1-2.6
		C9.5,16.4,11,15.7,12.1,14.4z M14.3,27.6c0-2.6-2.1-4.7-4.7-4.6C7.1,23,5,25.1,5,27.6c0,2.5,2.1,4.7,4.7,4.7
		C12.2,32.3,14.3,30.2,14.3,27.6z"/>
	<path class="st0" d="M9.6,29.4c-1,0-1.8-0.8-1.8-1.8c0-1,0.8-1.8,1.8-1.8c1,0,1.7,0.8,1.7,1.8C11.4,28.6,10.6,29.4,9.6,29.4z"/>
	<path class="st0" d="M24.5,11c1,0,1.8,0.8,1.8,1.8c0,1-0.8,1.8-1.8,1.8c-1,0-1.8-0.8-1.8-1.8C22.7,11.8,23.5,11,24.5,11z"/>
	<path class="st0" d="M37.7,15.2c-0.7,0.2-1.3,0.3-1.9,0.4c-3.2,0.9-5.6,2.9-7.4,5.7c-0.7,1.1-1.4,2.3-2.1,3.4
		c-0.1,0.1-0.2,0.3-0.2,0.3c-2.5-1.6-5.1-3-7.4-4.6c-3.1-2.2-4.4-5.3-3.8-9c0.6-4.3,3.2-7,7.4-8.1c3.6-1,7.9,0.7,10,3.7
		c0.9,1.3,1.7,2.8,2.6,4.1C35.7,12.7,36.4,14.1,37.7,15.2z M24.5,17.4c2.6,0,4.7-2.1,4.6-4.7c0-2.5-2.1-4.6-4.6-4.6
		c-2.5,0-4.7,2.1-4.7,4.7C19.9,15.4,22,17.4,24.5,17.4z"/>
	<path class="st0" d="M41.1,27.6c0,1-0.8,1.8-1.8,1.8c-1,0-1.8-0.8-1.8-1.8c0-1,0.8-1.8,1.8-1.8C40.3,25.8,41.1,26.6,41.1,27.6z"/>
	<path class="st0" d="M36.9,40.8c-0.2-0.7-0.3-1.3-0.4-1.9c-0.9-3.2-2.9-5.6-5.7-7.4c-1.1-0.7-2.3-1.4-3.4-2.1
		c-0.1-0.1-0.3-0.2-0.3-0.2c1.6-2.5,3-5.1,4.6-7.4c2.2-3.1,5.3-4.4,9-3.8c4.3,0.6,7,3.2,8.1,7.4c1,3.6-0.7,7.9-3.7,10
		c-1.3,0.9-2.8,1.7-4.1,2.6C39.4,38.8,38,39.5,36.9,40.8z M34.6,27.6c0,2.6,2.1,4.7,4.7,4.6c2.5,0,4.6-2.1,4.6-4.6
		c0-2.5-2.1-4.7-4.7-4.7C36.7,23,34.6,25.1,34.6,27.6z"/>
	<path class="st0" d="M11.3,40c0.7-0.2,1.3-0.3,1.9-0.4c3.2-0.9,5.6-2.9,7.4-5.7c0.7-1.1,1.4-2.3,2.1-3.4c0.1-0.1,0.2-0.3,0.2-0.3
		c2.5,1.6,5.1,3,7.4,4.6c3.1,2.2,4.4,5.3,3.8,9c-0.6,4.3-3.2,7-7.4,8.1c-3.6,1-7.9-0.7-10-3.7c-0.9-1.3-1.7-2.8-2.6-4.1
		C13.3,42.6,12.6,41.1,11.3,40z M24.5,37.8c-2.6,0-4.7,2.1-4.6,4.7c0,2.5,2.1,4.6,4.6,4.6c2.5,0,4.7-2.1,4.7-4.7
		C29.2,39.8,27.1,37.8,24.5,37.8z"/>
</g>
</svg>
